<svg width="40" height="40" viewBox="0 0 40 40" fill="none" xmlns="http://www.w3.org/2000/svg">
<path d="M10.0259 28.9136H13.7317V19.9138L8.43774 15.9434V27.3254C8.43774 28.2042 9.14978 28.9136 10.0259 28.9136Z" fill="white"/>
<path d="M26.4373 28.9136H30.143C31.0218 28.9136 31.7312 28.2016 31.7312 27.3254V15.9434L26.4373 19.9138" fill="white"/>
<path d="M26.4373 13.0317V19.9138L31.7312 15.9434V13.8258C31.7312 11.8617 29.4892 10.742 27.9196 11.9199" fill="white"/>
<path d="M13.7317 19.9139V13.0317L20.0845 17.7963L26.4372 13.0317V19.9139L20.0845 24.6785" fill="white"/>
<path d="M8.43774 13.8258V15.9434L13.7317 19.9138V13.0317L12.2494 11.9199C10.6771 10.742 8.43774 11.8617 8.43774 13.8258Z" fill="white"/>
</svg>
