<svg width="40" height="41" viewBox="0 0 40 41" fill="none" xmlns="http://www.w3.org/2000/svg">
<path d="M14.5401 29.9996V17.1798H10.2527V29.9996H14.5405H14.5401ZM12.3973 15.4298C13.8921 15.4298 14.8227 14.4454 14.8227 13.2152C14.7947 11.9569 13.8921 11 12.4257 11C10.9584 11 10 11.9569 10 13.2151C10 14.4453 10.9303 15.4297 12.3692 15.4297H12.397L12.3973 15.4298ZM16.9132 29.9996H21.2002V22.8412C21.2002 22.4586 21.2282 22.0749 21.3415 21.8016C21.6512 21.0358 22.3567 20.2431 23.5413 20.2431C25.0923 20.2431 25.7131 21.4186 25.7131 23.1421V29.9996H30V22.6491C30 18.7116 27.8852 16.8793 25.0645 16.8793C22.752 16.8793 21.7363 18.1639 21.172 19.0389H21.2005V17.1803H16.9134C16.9694 18.3829 16.9131 30 16.9131 30L16.9132 29.9996Z" fill="white"/>
</svg>
