<svg width="40" height="40" viewBox="0 0 40 40" fill="none" xmlns="http://www.w3.org/2000/svg">
<path d="M17.645 11.9793L18.4238 13.3748C19.1267 14.6342 18.8445 16.2863 17.7376 17.3933C17.7376 17.3933 17.7376 17.3933 17.7376 17.3933C17.7374 17.3934 16.3949 18.7361 18.8293 21.1705C21.263 23.6042 22.6057 22.2631 22.6065 22.2623C22.6066 22.2622 22.6066 22.2622 22.6066 22.2622C23.7135 21.1553 25.3656 20.8731 26.625 21.576L28.0205 22.3548C29.9222 23.4161 30.1468 26.083 28.4752 27.7545C27.4708 28.7589 26.2404 29.5405 24.8802 29.592C22.5904 29.6788 18.7018 29.0994 14.8011 25.1987C10.9005 21.298 10.321 17.4094 10.4078 15.1196C10.4593 13.7594 11.2409 12.529 12.2453 11.5246C13.9168 9.85304 16.5837 10.0776 17.645 11.9793Z" fill="white"/>
</svg>
