<svg width="1352" height="648" viewBox="0 0 1352 648" fill="none" xmlns="http://www.w3.org/2000/svg">
<mask id="mask0_100_3056" style="mask-type:alpha" maskUnits="userSpaceOnUse" x="0" y="0" width="1352" height="648">
<rect width="1352" height="648" rx="100" fill="white"/>
<rect x="0.5" y="0.5" width="1351" height="647" rx="99.5" stroke="white" stroke-opacity="0.1"/>
</mask>
<g mask="url(#mask0_100_3056)">
<path d="M1317.06 1156.75L1317.06 -47.751" stroke="white" stroke-opacity="0.1"/>
<path d="M1267.75 1156.75L1267.75 -47.751" stroke="white" stroke-opacity="0.1"/>
<path d="M1218.44 1156.75L1218.44 -47.751" stroke="white" stroke-opacity="0.1"/>
<path d="M1169.12 1156.75L1169.13 -47.751" stroke="white" stroke-opacity="0.1"/>
<path d="M1119.81 1156.75L1119.81 -47.751" stroke="white" stroke-opacity="0.1"/>
<path d="M1070.5 1156.75L1070.5 -47.751" stroke="white" stroke-opacity="0.1"/>
<path d="M1021.19 1156.75L1021.19 -47.751" stroke="white" stroke-opacity="0.1"/>
<path d="M971.875 1156.75L971.875 -47.751" stroke="white" stroke-opacity="0.1"/>
<path d="M922.562 1156.75L922.563 -47.751" stroke="white" stroke-opacity="0.1"/>
<path d="M873.25 1156.75L873.25 -47.751" stroke="white" stroke-opacity="0.1"/>
<path d="M823.938 1156.75L823.938 -47.751" stroke="white" stroke-opacity="0.1"/>
<path d="M774.625 1156.75L774.625 -47.751" stroke="white" stroke-opacity="0.1"/>
<path d="M725.312 1156.75L725.313 -47.751" stroke="white" stroke-opacity="0.1"/>
<path d="M676 1156.75L676 -47.751" stroke="white" stroke-opacity="0.1"/>
<path d="M626.688 1156.75L626.688 -47.751" stroke="white" stroke-opacity="0.1"/>
<path d="M577.375 1156.75L577.375 -47.751" stroke="white" stroke-opacity="0.1"/>
<path d="M528.062 1156.75L528.063 -47.751" stroke="white" stroke-opacity="0.1"/>
<path d="M478.75 1156.75L478.75 -47.751" stroke="white" stroke-opacity="0.1"/>
<path d="M429.438 1156.75L429.438 -47.751" stroke="white" stroke-opacity="0.1"/>
<path d="M380.125 1156.75L380.125 -47.751" stroke="white" stroke-opacity="0.1"/>
<path d="M330.812 1156.75L330.813 -47.751" stroke="white" stroke-opacity="0.1"/>
<path d="M281.5 1156.75L281.5 -47.751" stroke="white" stroke-opacity="0.1"/>
<path d="M232.188 1156.75L232.188 -47.751" stroke="white" stroke-opacity="0.1"/>
<path d="M182.875 1156.75L182.875 -47.751" stroke="white" stroke-opacity="0.1"/>
<path d="M133.562 1156.75L133.563 -47.751" stroke="white" stroke-opacity="0.1"/>
<path d="M84.25 1156.75L84.2501 -47.751" stroke="white" stroke-opacity="0.1"/>
<path d="M34.9375 1156.75L34.9376 -47.751" stroke="white" stroke-opacity="0.1"/>
<path d="M1465 604.687L-113 604.687" stroke="white" stroke-opacity="0.1"/>
<path d="M1465 554.499L-113 554.499" stroke="white" stroke-opacity="0.1"/>
<path d="M1465 504.311L-113 504.311" stroke="white" stroke-opacity="0.1"/>
<path d="M1465 454.124L-113 454.124" stroke="white" stroke-opacity="0.1"/>
<path d="M1465 403.937L-113 403.936" stroke="white" stroke-opacity="0.1"/>
<path d="M1465 353.749L-113 353.749" stroke="white" stroke-opacity="0.1"/>
<path d="M1465 303.562L-113 303.562" stroke="white" stroke-opacity="0.1"/>
<path d="M1465 253.374L-113 253.374" stroke="white" stroke-opacity="0.1"/>
<path d="M1465 203.186L-113 203.186" stroke="white" stroke-opacity="0.1"/>
<path d="M1465 152.999L-113 152.999" stroke="white" stroke-opacity="0.1"/>
<path d="M1465 102.812L-113 102.811" stroke="white" stroke-opacity="0.1"/>
<path d="M1465 52.6238L-113 52.6236" stroke="white" stroke-opacity="0.1"/>
<path d="M1465 2.43677L-113 2.43663" stroke="white" stroke-opacity="0.1"/>
</g>
</svg>
