<svg width="25" height="24" viewBox="0 0 25 24" fill="none" xmlns="http://www.w3.org/2000/svg">
<path d="M12.7773 22.0003C18.3002 22.0003 22.7773 19.9856 22.7773 17.5003C22.7773 16.2337 21.6144 15.0892 19.7428 14.2715C18.6007 16.3673 16.8591 18.1738 14.6469 19.1192C13.4578 19.6274 12.0969 19.6274 10.9078 19.1192C8.69562 18.1738 6.95401 16.3673 5.81193 14.2715C3.9403 15.0892 2.77734 16.2337 2.77734 17.5003C2.77734 19.9856 7.2545 22.0003 12.7773 22.0003Z" fill="#B8BA30"/>
<path fill-rule="evenodd" clip-rule="evenodd" d="M5.77734 8.51464C5.77734 4.9167 8.91135 2 12.7773 2C16.6433 2 19.7773 4.9167 19.7773 8.51464C19.7773 12.0844 17.5432 16.2499 14.0574 17.7396C13.2448 18.0868 12.3099 18.0868 11.4973 17.7396C8.0115 16.2499 5.77734 12.0844 5.77734 8.51464ZM12.7773 11C13.8819 11 14.7773 10.1046 14.7773 9C14.7773 7.89543 13.8819 7 12.7773 7C11.6728 7 10.7773 7.89543 10.7773 9C10.7773 10.1046 11.6728 11 12.7773 11Z" fill="#B8BA30"/>
</svg>
