<svg width="25" height="24" viewBox="0 0 25 24" fill="none" xmlns="http://www.w3.org/2000/svg">
<path fill-rule="evenodd" clip-rule="evenodd" d="M12.7773 22C18.3002 22 22.7773 17.5228 22.7773 12C22.7773 6.47715 18.3002 2 12.7773 2C7.2545 2 2.77734 6.47715 2.77734 12C2.77734 17.5228 7.2545 22 12.7773 22ZM13.5273 6C13.5273 5.58579 13.1916 5.25 12.7773 5.25C12.3631 5.25 12.0273 5.58579 12.0273 6V6.31673C10.3969 6.60867 9.02734 7.83361 9.02734 9.5C9.02734 11.4172 10.8401 12.75 12.7773 12.75C14.1538 12.75 15.0273 13.6557 15.0273 14.5C15.0273 15.3443 14.1538 16.25 12.7773 16.25C11.4009 16.25 10.5273 15.3443 10.5273 14.5C10.5273 14.0858 10.1916 13.75 9.77734 13.75C9.36313 13.75 9.02734 14.0858 9.02734 14.5C9.02734 16.1664 10.3969 17.3913 12.0273 17.6833V18C12.0273 18.4142 12.3631 18.75 12.7773 18.75C13.1916 18.75 13.5273 18.4142 13.5273 18V17.6833C15.1578 17.3913 16.5273 16.1664 16.5273 14.5C16.5273 12.5828 14.7146 11.25 12.7773 11.25C11.4009 11.25 10.5273 10.3443 10.5273 9.5C10.5273 8.65573 11.4009 7.75 12.7773 7.75C14.1538 7.75 15.0273 8.65573 15.0273 9.5C15.0273 9.91421 15.3631 10.25 15.7773 10.25C16.1916 10.25 16.5273 9.91421 16.5273 9.5C16.5273 7.83361 15.1578 6.60867 13.5273 6.31673V6Z" fill="#85BB65"/>
</svg>
