<svg width="25" height="24" viewBox="0 0 25 24" fill="none" xmlns="http://www.w3.org/2000/svg">
<path fill-rule="evenodd" clip-rule="evenodd" d="M12.8293 1.25H12.7253C11.8269 1.24997 11.0776 1.24995 10.4829 1.32991C9.85507 1.41432 9.28827 1.59999 8.8328 2.05546C8.37733 2.51093 8.19166 3.07773 8.10726 3.70552C8.02729 4.3003 8.02732 5.04951 8.02734 5.94799V6.02572C6.00617 6.09185 4.79246 6.32803 3.94892 7.17157C2.77734 8.34315 2.77734 10.2288 2.77734 14C2.77734 17.7712 2.77734 19.6569 3.94892 20.8284C5.12049 22 7.00611 22 10.7773 22H14.7773C18.5486 22 20.4342 22 21.6058 20.8284C22.7773 19.6569 22.7773 17.7712 22.7773 14C22.7773 10.2288 22.7773 8.34315 21.6058 7.17157C20.7622 6.32803 19.5485 6.09185 17.5273 6.02572V5.94801C17.5274 5.04954 17.5274 4.3003 17.4474 3.70552C17.363 3.07773 17.1774 2.51093 16.7219 2.05546C16.2664 1.59999 15.6996 1.41432 15.0718 1.32991C14.4771 1.24995 13.7278 1.24997 12.8293 1.25ZM16.0273 6.00189V6C16.0273 5.03599 16.0258 4.38843 15.9608 3.9054C15.8988 3.44393 15.7915 3.24644 15.6612 3.11612C15.5309 2.9858 15.3334 2.87858 14.872 2.81654C14.3889 2.7516 13.7414 2.75 12.7773 2.75C11.8133 2.75 11.1658 2.7516 10.6827 2.81654C10.2213 2.87858 10.0238 2.9858 9.89346 3.11612C9.76315 3.24644 9.65592 3.44393 9.59388 3.9054C9.52894 4.38843 9.52735 5.03599 9.52735 6V6.00189C9.91937 6 10.3354 6 10.7773 6H14.7773C15.2193 6 15.6353 6 16.0273 6.00189ZM17.7773 9C17.7773 9.55229 17.3296 10 16.7773 10C16.2251 10 15.7773 9.55229 15.7773 9C15.7773 8.44772 16.2251 8 16.7773 8C17.3296 8 17.7773 8.44772 17.7773 9ZM8.77734 10C9.32963 10 9.77734 9.55229 9.77734 9C9.77734 8.44772 9.32963 8 8.77734 8C8.22506 8 7.77734 8.44772 7.77734 9C7.77734 9.55229 8.22506 10 8.77734 10Z" fill="#0028CA"/>
</svg>
