<svg width="1512" height="463" viewBox="0 0 1512 463" fill="none" xmlns="http://www.w3.org/2000/svg">
<path d="M59.0771 395.574C72.747 386.184 86.6623 377.187 100.67 368.343C114.681 359.5 128.806 350.844 143.004 342.308C150.073 337.989 157.255 333.862 164.375 329.627L175.079 323.318L185.871 317.155C189.458 315.088 193.066 313.05 196.711 311.078C197.728 310.588 198.088 310.144 200.438 309.281C201.019 309.101 201.724 308.945 202.538 308.915C203.347 308.88 204.262 309.008 204.965 309.229C206.415 309.683 207.226 310.305 207.779 310.684L212.781 314.425C219.34 319.453 225.908 324.469 232.409 329.575L227.24 330.108C236.936 320.401 247.374 311.664 257.761 302.991C262.925 298.619 268.193 294.382 273.27 289.95C278.379 285.55 283.49 281.163 288.375 276.552L289.491 275.497L290.733 276.443C317.306 296.694 344.927 315.625 372.123 335.094C385.72 344.829 399.122 354.808 412.564 364.735L432.698 379.667C439.415 384.673 446.045 389.655 452.725 394.215C459.401 398.79 466.262 402.851 473.451 405.794C480.571 408.797 488.12 410.601 496.109 411.582C504.073 412.567 512.321 412.822 520.723 413.177L545.96 414.182C579.607 415.63 613.244 417.57 646.866 420.364L646.844 421.518C613.143 423.128 579.454 423.888 545.777 424.153L520.52 424.272C512.1 424.324 503.485 424.28 494.718 423.373C486 422.483 476.941 420.682 468.559 417.192C460.212 413.738 452.617 409.159 445.528 404.27C438.427 399.353 431.895 394.041 425.319 388.936L405.628 373.45C392.519 363.101 379.371 352.803 366.419 342.259C340.514 321.17 315.036 299.546 288.507 279.241L290.864 279.135L275.777 292.691C270.697 297.14 265.761 301.735 260.814 306.297C250.988 315.488 241.529 325.026 233.019 335.176L230.912 337.69L227.851 335.711C220.896 331.214 214.006 326.632 207.109 322.059L202.018 318.602C201.724 318.394 201.652 318.444 202.1 318.606C202.306 318.677 202.697 318.742 202.987 318.727C203.281 318.719 203.473 318.673 203.559 318.649C203.939 318.47 202.589 319.232 201.793 319.732C198.265 321.895 194.699 323.995 191.114 326.063L180.386 332.312L169.572 338.411C162.346 342.451 155.184 346.595 147.907 350.551C133.413 358.56 118.847 366.452 104.167 374.156C89.4829 381.856 74.7078 389.408 59.685 396.564L59.0771 395.574Z" fill="white" fill-opacity="0.2"/>
<path d="M352.705 327.425C357.212 322.315 361.675 317.159 366.233 312.089L380.005 296.956L393.949 281.969L408.158 267.221C427.191 247.635 446.628 228.404 466.633 209.742L481.696 195.807L496.94 182.058L512.32 168.452L527.902 155.067L543.63 141.844L559.491 128.773L575.566 115.955L591.784 103.312L595.728 100.238L599.64 103.371L613.138 114.177L626.565 125.07L617.95 125.964C635.889 104.429 654.386 83.3491 673.421 62.7538C692.454 42.1563 712.132 22.1369 732.491 2.81258L735.455 0L738.278 2.69349C750.098 13.972 764.289 23.003 779.754 29.1132C787.484 32.1704 795.524 34.5218 803.731 36.1046C811.937 37.6678 820.317 38.5469 828.704 38.4256L830.057 38.4062L830.647 39.5602L843.262 64.2391L856.03 88.84L869.004 113.339L882.187 137.732L877.864 138.88C877.488 133.291 876.977 127.712 876.537 122.125L875.169 105.373L872.443 71.8714L871.729 63.098L878.823 68.7708C889.875 77.6113 900.066 87.5279 909.273 98.2326C918.367 109.026 926.577 120.489 933.933 132.337C937.641 138.245 941.211 144.208 944.725 150.176L955.033 168.121C961.883 180.042 968.981 191.717 976.643 202.963C978.59 205.782 980.472 208.679 982.306 210.409C983.255 211.303 984.119 211.905 985.147 212.321C986.199 212.752 987.512 213.031 989.006 213.196C990.494 213.362 992.185 213.421 993.96 213.507L999.21 213.75L1009.71 214.272L1030.71 215.38L1041.2 215.935C1044.67 216.116 1048.3 216.279 1052.07 216.911C1055.81 217.539 1059.81 218.823 1063.13 221.196C1066.42 223.53 1068.87 226.444 1071.01 229.281C1075.18 234.943 1079.09 240.546 1083.14 246.182C1091.18 257.43 1099.12 268.759 1106.98 280.139L1106.04 280.83C1097.12 270.225 1088.27 259.565 1079.53 248.828L1066.43 232.78C1064.28 230.212 1062.04 227.906 1059.54 226.325C1057.08 224.766 1054.21 223.965 1051.04 223.582C1047.87 223.197 1044.48 223.242 1040.95 223.173L1030.44 223.015L1009.41 222.696L998.901 222.504L993.646 222.391C991.92 222.348 990.105 222.341 988.105 222.172C986.12 221.999 983.949 221.664 981.732 220.839C979.481 220.018 977.41 218.63 975.816 217.173C974.194 215.703 972.912 214.146 971.775 212.672C970.644 211.195 969.664 209.814 968.623 208.38C960.365 197.019 953.132 185.068 946.043 173.176L935.521 155.348C932.063 149.407 928.575 143.509 924.974 137.704C917.726 126.129 910.263 114.755 901.748 104.178C893.381 93.4973 884.057 83.5504 873.798 74.5475L880.178 71.4491L881.292 105.04L881.845 121.835C882.046 127.432 882.174 133.036 882.439 138.629L882.943 149.318L878.113 139.776L865.597 115.047L852.871 90.4249L839.94 65.9041L826.856 41.4613L828.797 42.5958C820.134 42.8362 811.428 42.388 802.841 41.0455C794.255 39.7226 785.786 37.5899 777.581 34.6972C761.181 28.9118 745.76 20.1493 732.617 8.64344L738.404 8.52435C719.048 28.6195 700.049 49.0178 681.49 69.7863C662.928 90.5527 644.916 111.782 627.475 133.445L623.7 138.135L618.861 134.339L605.253 123.665L591.716 112.904L599.572 112.962L583.475 125.562L567.486 138.293L551.539 151.076L535.719 164.013L520.013 177.087L504.371 190.236L488.86 203.537L473.437 216.944C452.979 234.932 432.68 253.122 412.736 271.701L382.998 299.771L353.569 328.202L352.705 327.425Z" fill="white" fill-opacity="0.2"/>
<path d="M600.236 106.96L630.35 223.417L625.338 221.285L709.429 178.078L711.938 176.79L712.952 179.302L761.33 299.043L708.297 181.207L711.818 182.43L628.634 227.289L624.799 229.357L623.621 225.158L591.117 109.321L600.236 106.96Z" fill="white" fill-opacity="0.2"/>
<path d="M738.832 4.67432C742.15 15.589 745.908 26.5059 750.007 37.2085C754.158 47.8937 758.628 58.4988 764.138 68.4284C766.917 73.3456 769.954 78.1891 773.666 82.0908C775.527 84.0091 777.541 85.5031 779.882 86.4645C782.194 87.3998 784.707 87.6835 787.247 87.4063C792.362 86.7806 797.334 83.955 801.68 80.5037C806.032 77.0415 810.024 72.8237 813.349 68.4241L815.568 65.4859L817.158 68.6882L920.767 277.536L813.19 70.6217L816.999 70.8881C813.415 75.816 809.412 80.1897 804.713 84.1C800.037 87.9173 794.549 91.3729 787.906 92.3516C784.615 92.7911 781.091 92.4685 777.934 91.2474C774.795 90.0522 772.006 88.0169 769.782 85.7954C765.372 81.3135 762.145 76.2772 759.123 71.1847C753.19 60.9455 748.457 50.2559 744.032 39.4798C739.657 28.669 735.674 17.7889 732.062 6.66629L738.832 4.67432Z" fill="white" fill-opacity="0.2"/>
<path d="M1061.07 225.949L981.331 258.255L979.821 258.868L978.681 257.807L950.777 231.864L953.799 231.498L864.311 362.533L950.461 229.367L951.712 227.432L953.485 228.999L982.036 254.258L979.388 253.81L1058.29 219.581L1061.07 225.949Z" fill="white" fill-opacity="0.2"/>
<path d="M1316.05 276.629C1292.82 279.897 1270.27 288.495 1248.98 299.284C1227.64 310.12 1207.4 323.213 1187.63 336.99C1182.72 340.375 1177.72 344.198 1171.69 346.751C1168.69 348.033 1165.41 348.864 1162.22 349.243C1159.02 349.64 1155.86 349.678 1152.77 349.629L1116.25 348.576C1104.09 348.198 1091.94 347.784 1079.99 349.644C1074.04 350.581 1068.15 352.106 1062.68 354.626C1057.22 357.153 1052.24 360.773 1048.4 365.411C1052.05 360.624 1056.91 356.756 1062.34 353.968C1067.79 351.185 1073.71 349.393 1079.72 348.198C1091.77 345.82 1104.13 345.749 1116.27 345.638L1152.76 345.223C1158.75 345.103 1164.52 344.514 1169.53 342.068C1174.63 339.682 1179.2 335.934 1184.06 332.277C1203.37 317.655 1223.3 303.601 1244.74 291.63C1266.14 279.725 1289.22 269.753 1314.14 265.232L1316.05 276.629Z" fill="white" fill-opacity="0.2"/>
<path d="M230.89 337.681C218.648 348.654 206.147 359.389 193.346 369.708L154.848 400.45L190.999 367.117C202.98 355.964 214.576 344.477 225.931 332.738L230.89 337.681Z" fill="white" fill-opacity="0.2"/>
<path d="M221.552 340.433L193.176 321.63" stroke="white" stroke-width="1.0667" stroke-miterlimit="10"/>
<path d="M214.873 347.381L183.576 327.353" stroke="white" stroke-width="1.0667" stroke-miterlimit="10"/>
<path d="M206.943 354.738L173.978 333.892" stroke="white" stroke-width="1.0667" stroke-miterlimit="10"/>
<path d="M194.426 365.365L158.12 341.658" stroke="white" stroke-width="1.0667" stroke-miterlimit="10"/>
<path d="M183.158 376.81L144.348 350.651" stroke="white" stroke-width="1.0667" stroke-miterlimit="10"/>
<path d="M166.883 389.483L125.988 360.87" stroke="white" stroke-width="1.0667" stroke-miterlimit="10"/>
<path d="M1033.76 219.931L1046.33 228.499" stroke="white" stroke-width="1.0667" stroke-miterlimit="10"/>
<path d="M1022 221.27L1034.57 231.981" stroke="white" stroke-width="1.0667" stroke-miterlimit="10"/>
<path d="M1007.51 220.198L1023.36 237.337" stroke="white" stroke-width="1.0667" stroke-miterlimit="10"/>
<path d="M991.376 219.128L1009.15 242.694" stroke="white" stroke-width="1.0667" stroke-miterlimit="10"/>
<path d="M1297.37 274.557L1348.78 306.147L1295.57 277.543L1297.37 274.557Z" fill="white" fill-opacity="0.2"/>
<path d="M1281.99 278.494L1383.17 338.036L1280.22 281.49L1281.99 278.494Z" fill="white" fill-opacity="0.2"/>
<path d="M1262.25 287.096L1343.66 335.886L1260.46 290.084L1262.25 287.096Z" fill="white" fill-opacity="0.2"/>
<path d="M1244.65 296.389L1306.35 331.586L1242.95 299.424L1244.65 296.389Z" fill="white" fill-opacity="0.2"/>
<path d="M1229.29 304.631L1266.11 326.569L1227.58 307.662L1229.29 304.631Z" fill="white" fill-opacity="0.2"/>
<path d="M1212.47 314.667L1236.48 329.795L1210.74 317.692L1212.47 314.667Z" fill="white" fill-opacity="0.2"/>
<path d="M365.03 334.239L458.661 249.889L368.286 337.58L365.03 334.239Z" fill="white" fill-opacity="0.2"/>
<path d="M374.221 339.964L454.682 269.729L377.435 343.346L374.221 339.964Z" fill="white" fill-opacity="0.2"/>
<path d="M385.047 348.667L452.709 289.036L388.292 352.019L385.047 348.667Z" fill="white" fill-opacity="0.2"/>
<path d="M401.809 358.316L478.335 290.967L405.04 361.68L401.809 358.316Z" fill="white" fill-opacity="0.2"/>
<path d="M411.663 367.007L464.537 321.38L414.899 370.367L411.663 367.007Z" fill="white" fill-opacity="0.2"/>
<path d="M422.981 376.679L478.335 327.654L426.253 380.004L422.981 376.679Z" fill="white" fill-opacity="0.2"/>
<path d="M431.872 386.052L473.901 350.344L435.108 389.41L431.872 386.052Z" fill="white" fill-opacity="0.2"/>
<path d="M445.179 393.071L470.942 372.55L448.408 396.438L445.179 393.071Z" fill="white" fill-opacity="0.2"/>
<path d="M1124.88 237.182L1155.91 265.364L1163.67 272.409L1165.61 274.17C1166.27 274.761 1166.56 274.975 1166.97 274.914C1167.46 274.871 1168.31 274.39 1169.1 274.027L1171.47 272.886L1190.47 263.759L1172.31 274.408L1170.04 275.739C1169.27 276.149 1168.65 276.701 1167.4 277.038C1166.79 277.199 1165.97 277.114 1165.4 276.846C1164.82 276.592 1164.4 276.261 1164.03 275.986L1161.94 274.388L1153.61 268.001L1120.28 242.456L1124.88 237.182Z" fill="white" fill-opacity="0.2"/>
<path d="M407.957 270.448C395.717 260.176 383.478 249.904 371.238 239.635C370.341 238.884 369.35 238.091 368.172 238.041C366.671 237.979 365.433 239.117 364.403 240.187C346.805 258.455 332.499 280.356 311.032 294.096C325.091 304.485 338.25 318.599 353.138 327.815L407.957 270.448Z" fill="white" fill-opacity="0.2"/>
<path d="M258.63 304.697C254.156 301.785 249.885 298.576 245.851 295.103C236.166 304.352 225.753 312.872 214.735 320.559C220.611 322.928 226.234 325.887 231.496 329.38" fill="white" fill-opacity="0.2"/>
<path d="M886.57 437.016C897.227 426.075 908.556 415.819 919.914 405.636C931.302 395.481 942.795 385.452 954.345 375.505L988.918 345.658C994.66 340.678 1000.31 335.633 1005.9 330.554C1011.41 325.58 1016.81 320.063 1022.98 314.988C1029.1 309.919 1036.15 305.24 1044.46 302.668C1048.57 301.347 1053.06 300.704 1057.16 300.659C1061.29 300.557 1065.22 300.782 1069 300.914C1076.51 301.295 1083.63 301.267 1088.78 298.026C1093.99 294.986 1096.82 287.858 1100.24 281.057C1103.52 274.241 1106.89 267.464 1110.07 260.601L1114.87 250.327L1117.19 245.156C1117.97 243.433 1118.79 241.571 1120.1 239.826C1121.38 238.057 1123.38 236.602 1125.44 235.865C1127.52 235.103 1129.62 234.837 1131.63 234.705C1135.67 234.525 1139.34 234.597 1143.18 234.369C1150.79 234.029 1158.36 233.049 1165.85 231.752C1173.32 230.368 1180.7 228.551 1187.92 226.289C1195.19 224.011 1202.07 221.324 1209.19 218.288C1212.81 216.805 1216.63 215.355 1220.84 214.469C1225 213.553 1229.76 213.415 1234.23 214.523C1238.66 215.597 1242.57 217.511 1246.05 219.557C1249.56 221.631 1252.67 223.678 1255.93 225.709C1281.71 242.127 1307.58 258.401 1333.07 275.239C1345.89 283.541 1358.44 292.254 1371.13 300.754C1383.76 309.339 1396.19 318.227 1409.01 326.539C1434.49 343.378 1459.74 360.587 1484.6 378.437L1483.97 379.411C1456.88 364.997 1430.17 349.945 1403.7 334.52L1393.77 328.748C1390.47 326.808 1387.28 324.703 1384.03 322.69L1364.62 310.456C1351.79 302.142 1338.81 294.04 1326.12 285.524C1300.56 268.731 1275.39 251.373 1250.13 234.159C1243.72 229.874 1237.79 225.124 1231.8 223.307C1225.96 221.419 1219.02 222.961 1211.9 225.338C1204.71 227.804 1197.07 230.143 1189.53 231.927C1181.93 233.681 1174.27 235.136 1166.56 236.117C1158.85 237.139 1151.1 237.769 1143.34 238.015C1139.5 238.199 1135.48 238.089 1131.83 238.21C1128.16 238.323 1124.85 239.317 1123.06 241.947C1122.11 243.257 1121.39 244.886 1120.66 246.616L1118.43 251.827L1114.14 262.32C1111.25 269.3 1108.56 276.365 1105.78 283.394C1104.39 286.914 1103.18 290.42 1101.45 294.131C1099.75 297.766 1097.22 301.663 1093.47 304.439C1089.79 307.267 1085.31 308.783 1081.11 309.519C1076.86 310.261 1072.77 310.4 1068.86 310.461C1064.95 310.484 1061.19 310.437 1057.64 310.677C1054.06 310.928 1050.88 311.433 1047.67 312.466C1041.29 314.535 1035.31 318.387 1029.59 322.856C1023.88 327.356 1018.48 332.604 1012.64 337.781C1006.81 342.809 1000.95 347.743 995.036 352.591C983.252 362.343 971.273 371.809 959.288 381.26C947.309 390.718 935.239 400.054 923.21 409.429C911.189 418.816 899.122 428.139 887.386 437.856L886.57 437.016Z" fill="white" fill-opacity="0.2"/>
<path d="M1059.31 223.266C1076.69 212.329 1094.07 201.393 1111.46 190.457C1121.79 202.969 1132.64 215.07 1143.97 226.719C1153.48 219.061 1163.86 212.451 1174.86 207.051C1180 214.17 1185.13 221.289 1190.27 228.41C1170.04 233.033 1150.14 234.406 1129.93 236.495C1127.28 236.77 1125.34 237.606 1123.19 239.158C1121.48 240.392 1120.34 241.44 1119.33 243.268C1113.29 254.161 1109.95 264.946 1103.47 275.949L1059.31 223.266Z" fill="white" fill-opacity="0.2"/>
<path d="M475.914 416.553C483.255 403.415 490.271 384.614 497.615 371.476C502.743 385.658 507.872 399.84 512.998 414.022C515.666 395.083 520.673 376.46 527.879 358.693C532.344 378.091 536.81 397.491 541.277 416.889C547.767 402.8 554.255 388.709 560.745 374.62C564.041 389.412 567.337 404.205 570.633 418.998C574.318 408.615 578.003 398.236 581.69 387.853C585.114 397.833 588.54 407.814 591.964 417.794C598.709 401.665 605.451 385.539 612.193 369.41C617.266 385.593 620.856 402.222 622.901 419.03C626.318 406.732 630.934 394.756 636.67 383.315C641.48 395.984 646.796 409.592 651.606 422.261L475.914 416.553Z" fill="white" fill-opacity="0.2"/>
<path d="M50.4832 413.894C50.0942 435.786 50.9297 457.627 52.9281 479.298H110.256C111.018 463.986 112.36 448.745 114.321 433.63C114.854 448.938 116.021 464.172 117.76 479.298H165.435L170.481 432.536L172.878 479.298H215.85C219.294 459.855 221.94 440.223 223.682 420.459C224.458 440.013 224.354 459.649 223.437 479.298H274.246C275.749 461.907 277.796 444.601 280.444 427.422C280.369 444.765 280.906 462.067 281.98 479.298H320.375L324.073 437.661L327.988 479.298H367.939L374.499 427.056L375.921 479.298H402.127C393.85 452.372 385.572 425.445 377.296 398.519C367.85 421.658 357.615 444.49 346.616 466.963C338.963 450.31 332.296 433.221 326.664 415.812C318.83 432.72 312.55 450.319 307.921 468.325C298.968 443.15 291.581 417.443 285.811 391.393C274.316 414.784 262.819 438.177 251.325 461.567C243.097 435.983 234.87 410.397 226.642 384.813C215.247 411.662 203.849 438.51 192.454 465.356C187.054 442.637 181.653 419.92 176.253 397.2C163.885 419.056 151.52 440.911 139.152 462.767C132.01 441.626 124.867 420.485 117.725 399.344C108.291 421.061 100.896 443.626 95.6685 466.666C81.5477 436.477 67.4247 406.288 53.3038 376.101C34.3 408.249 15.2939 447.151 -3.70996 479.3H45.2045C45.777 457.36 47.5322 435.516 50.4832 413.894Z" fill="white" fill-opacity="0.2"/>
<path d="M20.0645 461.21C22.202 461.147 24.0434 461.73 25.8184 462.464C27.5626 463.265 29.2337 464.22 30.6109 465.824C28.4711 465.891 26.6297 465.309 24.8569 464.571C23.115 463.767 21.4438 462.812 20.0645 461.21Z" fill="white" fill-opacity="0.2"/>
<path d="M25.8848 444.527C28.0135 444.761 29.762 445.593 31.4177 446.565C33.0358 447.598 34.5589 448.775 35.6973 450.557C33.5641 450.328 31.8178 449.496 30.1643 448.52C28.5507 447.483 27.0254 446.305 25.8848 444.527Z" fill="white" fill-opacity="0.2"/>
<path d="M33.3633 428.818C35.1693 428.974 36.5531 429.702 37.8374 430.564C39.0775 431.484 40.2159 432.543 40.9299 434.179C39.1217 434.028 37.7379 433.3 36.4558 432.434C35.2179 431.508 34.0795 430.449 33.3633 428.818Z" fill="white" fill-opacity="0.2"/>
<path d="M40.0499 411.744C41.3983 411.822 42.2184 412.38 42.917 413.054C43.5602 413.777 44.0775 414.617 44.0642 415.942C42.7136 415.868 41.8913 415.308 41.1972 414.632C40.5561 413.904 40.0411 413.067 40.0499 411.744Z" fill="white" fill-opacity="0.2"/>
<path d="M51.4247 392.411C52.3288 394.475 52.5167 396.469 52.5322 398.469C52.4747 400.47 52.2404 402.458 51.2833 404.502C50.3725 402.516 50.1868 400.474 50.1758 398.443C50.2399 396.415 50.472 394.377 51.4247 392.411Z" fill="white" fill-opacity="0.2"/>
<path d="M62.2674 414.186C62.4796 415.405 62.1237 416.191 61.633 416.873C61.0826 417.511 60.3951 418.048 59.1351 418.148C58.9185 416.927 59.2744 416.141 59.7695 415.461C60.3244 414.824 61.0096 414.289 62.2674 414.186Z" fill="white" fill-opacity="0.2"/>
<path d="M56.8555 434.143C58.3719 432.826 59.9767 432.131 61.6302 431.51C63.308 430.956 64.999 430.497 67.0261 430.575C65.7882 432.155 64.1414 433.045 62.4238 433.682C60.6841 434.253 58.8361 434.591 56.8555 434.143Z" fill="white" fill-opacity="0.2"/>
<path d="M57.9434 451.661C59.5018 450.124 61.3719 449.225 63.295 448.487C65.2425 447.816 67.2607 447.301 69.4668 447.476C67.831 449.046 66.0073 449.927 64.1151 450.65C62.1964 451.306 60.2268 451.802 57.9434 451.661Z" fill="white" fill-opacity="0.2"/>
<path d="M103.76 450.447C105.091 450.453 105.915 450.962 106.62 451.59C107.274 452.27 107.805 453.069 107.827 454.377C106.492 454.374 105.667 453.866 104.967 453.233C104.317 452.549 103.784 451.75 103.76 450.447Z" fill="white" fill-opacity="0.2"/>
<path d="M115.883 419.669C116.814 420.95 117.022 422.232 117.062 423.516C117.026 424.798 116.818 426.08 115.883 427.362C114.948 426.08 114.74 424.798 114.705 423.516C114.745 422.234 114.955 420.953 115.883 419.669Z" fill="white" fill-opacity="0.2"/>
<path d="M125.954 442.511C125.921 444.148 125.428 445.352 124.851 446.543C124.21 447.701 123.502 448.797 122.163 449.782C121.736 448.188 122.125 446.766 122.751 445.493C123.443 444.252 124.391 443.111 125.954 442.511Z" fill="white" fill-opacity="0.2"/>
<path d="M154.3 451.705C155.896 451.824 157.028 452.486 158.053 453.274C159.03 454.119 159.897 455.093 160.297 456.615C158.699 456.501 157.565 455.838 156.543 455.045C155.569 454.197 154.702 453.222 154.3 451.705Z" fill="white" fill-opacity="0.2"/>
<path d="M161.68 435.254C162.971 435.165 163.782 435.6 164.478 436.161C165.126 436.776 165.656 437.517 165.705 438.788C164.41 438.881 163.601 438.443 162.907 437.88C162.261 437.263 161.731 436.521 161.68 435.254Z" fill="white" fill-opacity="0.2"/>
<path d="M172.86 415.494C173.779 416.71 173.976 417.981 174.005 419.244C173.958 420.504 173.74 421.773 172.793 422.974C171.869 421.684 171.671 420.458 171.648 419.224C171.699 417.992 171.92 416.769 172.86 415.494Z" fill="white" fill-opacity="0.2"/>
<path d="M180.256 437.234C180.667 438.267 180.358 438.973 179.898 439.491C179.387 439.96 178.675 440.285 177.605 439.908C177.572 438.804 177.829 438.311 178.207 437.884C178.633 437.503 179.131 437.237 180.256 437.234Z" fill="white" fill-opacity="0.2"/>
<path d="M183.436 451.341C182.811 452.718 181.975 453.499 181.062 454.231C180.105 454.907 179.117 455.491 177.592 455.719C177.777 454.212 178.631 453.187 179.63 452.397C180.673 451.663 181.905 451.124 183.436 451.341Z" fill="white" fill-opacity="0.2"/>
<path d="M206.934 449.648C208.525 449.555 209.734 450.059 210.853 450.704C211.932 451.41 212.915 452.261 213.514 453.712C211.918 453.809 210.711 453.305 209.595 452.655C208.519 451.947 207.533 451.096 206.934 449.648Z" fill="white" fill-opacity="0.2"/>
<path d="M213.258 430.895C214.485 430.705 215.254 431.062 215.915 431.545C216.529 432.084 217.031 432.755 217.071 433.974C215.84 434.167 215.073 433.812 214.414 433.325C213.806 432.781 213.302 432.112 213.258 430.895Z" fill="white" fill-opacity="0.2"/>
<path d="M224.716 405.162C225.647 406.591 225.855 408.02 225.894 409.447C225.859 410.876 225.651 412.305 224.716 413.734C223.781 412.305 223.573 410.876 223.538 409.447C223.576 408.02 223.786 406.591 224.716 405.162Z" fill="white" fill-opacity="0.2"/>
<path d="M234.349 431.527C234.554 432.9 234.07 433.922 233.42 434.792C232.715 435.617 231.813 436.318 230.398 436.442C230.456 435.056 230.955 434.179 231.568 433.363C232.238 432.592 232.991 431.91 234.349 431.527Z" fill="white" fill-opacity="0.2"/>
<path d="M238.379 452.17C238.319 453.456 237.773 454.218 237.112 454.859C236.403 455.446 235.576 455.907 234.261 455.842C234.318 454.554 234.864 453.789 235.527 453.153C236.239 452.57 237.066 452.109 238.379 452.17Z" fill="white" fill-opacity="0.2"/>
<path d="M263.323 450.865C264.736 450.755 265.719 451.214 266.604 451.805C267.444 452.454 268.18 453.242 268.483 454.602C267.066 454.715 266.082 454.258 265.202 453.663C264.367 453.006 263.633 452.221 263.323 450.865Z" fill="white" fill-opacity="0.2"/>
<path d="M271.103 433.801C272.129 433.502 272.655 433.712 273.064 434.043C273.422 434.427 273.658 434.931 273.393 435.951C272.365 436.254 271.839 436.044 271.432 435.708C271.079 435.323 270.842 434.818 271.103 433.801Z" fill="white" fill-opacity="0.2"/>
<path d="M283.09 408.461C283.977 409.845 284.142 411.207 284.138 412.562C284.061 413.916 283.809 415.264 282.829 416.592C281.939 415.208 281.773 413.846 281.782 412.491C281.866 411.135 282.118 409.787 283.09 408.461Z" fill="white" fill-opacity="0.2"/>
<path d="M288.511 433.156C288.487 434.364 288.195 434.981 287.795 435.581C287.339 436.142 286.829 436.603 285.659 436.997C285.096 435.906 285.383 434.955 285.887 434.223C286.449 433.528 287.28 432.97 288.511 433.156Z" fill="white" fill-opacity="0.2"/>
<path d="M292.047 450.234C291.854 451.601 291.291 452.423 290.625 453.186C289.907 453.9 289.118 454.517 287.739 454.814C287.613 453.43 288.172 452.439 288.892 451.622C289.668 450.854 290.632 450.226 292.047 450.234Z" fill="white" fill-opacity="0.2"/>
<path d="M316.459 452.649C317.518 452.971 317.889 453.394 318.141 453.889C318.327 454.413 318.366 454.968 317.849 455.931C316.735 455.862 316.244 455.346 315.966 454.773C315.749 454.171 315.725 453.469 316.459 452.649Z" fill="white" fill-opacity="0.2"/>
<path d="M333.561 453.086C333.729 454.368 333.444 455.175 333.048 455.955C332.591 456.702 332.045 457.366 330.844 457.908C330.294 456.721 330.535 455.706 330.986 454.84C331.499 454.006 332.246 453.266 333.561 453.086Z" fill="white" fill-opacity="0.2"/>
<path d="M360.72 452.618C362.006 452.447 362.848 452.831 363.585 453.346C364.276 453.918 364.862 454.626 364.999 455.892C363.711 456.068 362.868 455.684 362.134 455.165C361.445 454.589 360.859 453.881 360.72 452.618Z" fill="white" fill-opacity="0.2"/>
<path d="M365.622 436.825C366.815 436.843 367.439 437.295 367.929 437.849C368.363 438.447 368.657 439.151 368.378 440.292C367.182 440.277 366.557 439.824 366.07 439.268C365.644 438.666 365.347 437.962 365.622 436.825Z" fill="white" fill-opacity="0.2"/>
<path d="M375.309 415.494C376.18 416.394 376.372 417.189 376.429 418.003C376.414 418.819 376.259 419.618 375.426 420.558C374.4 419.818 374.128 418.93 374.075 418.055C374.093 417.178 374.323 416.28 375.309 415.494Z" fill="white" fill-opacity="0.2"/>
<path d="M383.61 441.886C383.926 443.001 383.506 443.761 382.94 444.302C382.328 444.791 381.505 445.112 380.411 444.666C380.566 443.525 380.915 443.018 381.377 442.576C381.883 442.182 382.438 441.901 383.61 441.886Z" fill="white" fill-opacity="0.2"/>
<path d="M387.418 453.755C386.861 455.401 385.899 456.459 384.821 457.397C383.693 458.278 382.462 459.023 380.709 459.27C381.191 457.681 382.197 456.585 383.306 455.628C384.462 454.727 385.738 453.948 387.418 453.755Z" fill="white" fill-opacity="0.2"/>
<path d="M1500.13 383.642L1515.65 383.655C1512.01 373 1506.66 350.521 1502.25 340.169C1497.32 349.202 1492.4 358.233 1487.48 367.267C1483.23 356.75 1478.98 346.236 1474.73 335.72C1469.4 344.658 1464.07 353.596 1458.73 362.534C1452.14 347.531 1445.54 332.528 1438.95 317.528C1428.27 332.082 1418.86 347.585 1410.87 363.796C1403.84 347.888 1396.8 331.983 1389.76 316.075C1382.04 332.437 1374.33 348.798 1366.62 365.16C1358.38 341.585 1350.14 318.011 1341.9 294.436C1330.11 318.318 1318.32 342.2 1306.53 366.082C1300.26 348.176 1293.99 330.27 1287.72 312.364C1280.35 330.621 1272.98 348.878 1265.6 367.135C1258.78 350.105 1251.96 333.076 1245.13 316.047C1235.75 335.181 1233.97 339.777 1226.04 359.567L1223.96 364.842C1219.8 358.197 1215.63 351.552 1211.46 344.909C1208.35 351.595 1205.24 358.281 1202.13 364.967C1200.14 357.287 1197.4 349.807 1193.96 342.67C1188.43 352.558 1177.03 373.468 1171.5 383.356L1185.93 383.369C1188.37 375.938 1190.46 368.354 1192.14 360.626C1192.42 368.163 1192.3 375.759 1191.83 383.373L1208.19 383.389C1209.79 375.713 1211.04 367.918 1211.86 360.028C1213.02 367.726 1213.78 375.529 1214.17 383.395L1241.31 383.419C1243.58 368.516 1245.04 353.44 1245.57 338.266C1247.11 353.21 1247.73 368.295 1247.55 383.425L1282.65 383.456C1284.83 369.618 1286.33 355.629 1287.04 341.542C1288.35 355.423 1288.88 369.421 1288.73 383.46L1333.58 383.499L1338.24 330.212L1339.81 383.506L1386.63 383.547C1388.11 369.516 1389.14 355.41 1389.64 341.245C1391.19 355.271 1392.22 369.388 1392.79 383.553L1431.77 383.588L1435.91 341.544L1437.78 383.594L1469.74 383.622L1472.59 353.767L1475.79 383.627L1493.98 383.642L1497.95 362.412L1500.13 383.642Z" fill="white" fill-opacity="0.2"/>
<path d="M1192.14 360.624C1190.46 368.351 1188.37 375.936 1185.94 383.367L1191.84 383.371C1192.31 375.756 1192.42 368.163 1192.14 360.624Z" fill="white" fill-opacity="0.2"/>
<path d="M1208.2 383.386L1214.17 383.39C1213.78 375.527 1213.02 367.723 1211.86 360.024C1211.04 367.916 1209.8 375.711 1208.2 383.386Z" fill="white" fill-opacity="0.2"/>
<path d="M1245.58 338.262C1245.04 353.435 1243.58 368.512 1241.32 383.415L1247.56 383.421C1247.74 368.291 1247.11 353.206 1245.58 338.262Z" fill="white" fill-opacity="0.2"/>
<path d="M1287.05 341.54C1286.33 355.627 1284.84 369.614 1282.66 383.454L1288.74 383.458C1288.89 369.419 1288.35 355.419 1287.05 341.54Z" fill="white" fill-opacity="0.2"/>
<path d="M1333.59 383.497L1339.82 383.501L1338.25 330.207L1333.59 383.497Z" fill="white" fill-opacity="0.2"/>
<path d="M1386.64 383.542L1392.8 383.549C1392.23 369.384 1391.19 355.269 1389.65 341.241C1389.14 355.406 1388.12 369.512 1386.64 383.542Z" fill="white" fill-opacity="0.2"/>
<path d="M1431.77 383.581L1437.78 383.587L1435.91 341.537L1431.77 383.581Z" fill="white" fill-opacity="0.2"/>
<path d="M1469.75 383.613L1475.8 383.62L1472.6 353.76L1469.75 383.613Z" fill="white" fill-opacity="0.2"/>
<path d="M1497.95 362.408L1493.99 383.635L1500.13 383.642L1497.95 362.408Z" fill="white" fill-opacity="0.2"/>
<path d="M1229.16 372.21C1230.57 371.926 1231.6 372.197 1232.6 372.588C1233.56 373.045 1234.46 373.613 1235.18 374.832C1233.84 375.34 1232.68 375.115 1231.64 374.697C1230.62 374.212 1229.68 373.526 1229.16 372.21Z" fill="white" fill-opacity="0.2"/>
<path d="M1231.4 361.204C1232.98 360.966 1234.21 361.28 1235.42 361.704C1236.6 362.196 1237.72 362.789 1238.71 364.027C1237.19 364.543 1235.82 364.302 1234.56 363.85C1233.32 363.332 1232.15 362.596 1231.4 361.204Z" fill="white" fill-opacity="0.2"/>
<path d="M1235.34 349.585C1236.4 349.135 1237.09 349.293 1237.7 349.596C1238.27 349.962 1238.75 350.473 1238.87 351.601C1237.81 352.056 1237.12 351.898 1236.51 351.59C1235.94 351.22 1235.46 350.709 1235.34 349.585Z" fill="white" fill-opacity="0.2"/>
<path d="M1238.55 338.099C1239.62 337.747 1240.36 338.026 1240.98 338.431C1241.55 338.894 1242.04 339.507 1241.99 340.613C1240.8 340.882 1240.14 340.657 1239.57 340.282C1239.04 339.851 1238.63 339.292 1238.55 338.099Z" fill="white" fill-opacity="0.2"/>
<path d="M1245.52 327.401C1246.36 328.328 1246.52 329.118 1246.55 329.928C1246.51 330.737 1246.34 331.526 1245.48 332.439C1244.47 331.677 1244.22 330.783 1244.2 329.91C1244.24 329.038 1244.5 328.148 1245.52 327.401Z" fill="white" fill-opacity="0.2"/>
<path d="M1252.53 343.523C1253.18 344.467 1253.08 345.249 1252.79 345.913C1252.43 346.545 1251.86 347.104 1250.7 347.167C1250.3 346.099 1250.42 345.476 1250.68 344.891C1251 344.337 1251.43 343.863 1252.53 343.523Z" fill="white" fill-opacity="0.2"/>
<path d="M1258.33 357.826C1258.07 359.255 1257.91 360.132 1257.37 361.221C1257.08 361.73 1256.75 362.269 1256.24 362.717C1255.76 363.167 1255.11 363.563 1254.33 363.592C1254.56 362.154 1254.72 361.268 1255.27 360.177C1255.56 359.666 1255.9 359.127 1256.41 358.679C1256.9 358.231 1257.55 357.841 1258.33 357.826Z" fill="white" fill-opacity="0.2"/>
<path d="M1259.35 370.058C1259.23 371.536 1258.56 372.561 1257.76 373.47C1256.91 374.33 1255.93 375.079 1254.43 375.326C1254.58 373.816 1255.23 372.807 1256.02 371.913C1256.87 371.067 1257.83 370.335 1259.35 370.058Z" fill="white" fill-opacity="0.2"/>
<path d="M1271.67 370.304C1272.95 370.261 1273.69 370.605 1274.38 371.056C1275.03 371.562 1275.58 372.147 1275.92 373.357C1274.7 373.764 1273.75 373.429 1272.98 372.916C1272.25 372.344 1271.65 371.562 1271.67 370.304Z" fill="white" fill-opacity="0.2"/>
<path d="M1274.48 361.065C1275.69 360.721 1276.53 360.981 1277.29 361.383C1278 361.847 1278.63 362.457 1278.88 363.676C1277.66 364.025 1276.82 363.765 1276.07 363.358C1275.35 362.888 1274.73 362.278 1274.48 361.065Z" fill="white" fill-opacity="0.2"/>
<path d="M1277.83 348.141C1279.04 348.098 1279.69 348.435 1280.28 348.884C1280.82 349.386 1281.25 349.97 1281.37 351.157C1280.19 351.484 1279.38 351.131 1278.73 350.624C1278.13 350.066 1277.67 349.325 1277.83 348.141Z" fill="white" fill-opacity="0.2"/>
<path d="M1286.07 326.678C1287.05 327.535 1287.31 328.323 1287.39 329.135C1287.4 329.952 1287.24 330.761 1286.36 331.72C1285.38 330.999 1285.12 330.129 1285.04 329.263C1285.03 328.395 1285.19 327.501 1286.07 326.678Z" fill="white" fill-opacity="0.2"/>
<path d="M1294.97 347.464C1295.37 348.572 1295.15 349.311 1294.78 349.96C1294.36 350.573 1293.78 351.095 1292.59 351.244C1292.19 350.133 1292.41 349.395 1292.78 348.748C1293.21 348.139 1293.79 347.615 1294.97 347.464Z" fill="white" fill-opacity="0.2"/>
<path d="M1299.44 359.074C1299.35 360.613 1298.75 361.637 1298.02 362.564C1297.23 363.445 1296.32 364.205 1294.79 364.582C1294.81 363.123 1295.44 362.047 1296.21 361.092C1297.03 360.182 1297.99 359.37 1299.44 359.074Z" fill="white" fill-opacity="0.2"/>
<path d="M1300.33 372.757C1300.29 374.214 1299.54 375.239 1298.63 376.029C1297.68 376.767 1296.52 377.311 1295.05 377.09C1295.57 375.732 1296.3 374.972 1297.12 374.258C1297.98 373.6 1298.88 373.026 1300.33 372.757Z" fill="white" fill-opacity="0.2"/>
<path d="M1315.92 370.743C1317.51 370.709 1318.67 371.15 1319.8 371.687C1320.9 372.287 1321.92 372.967 1322.8 374.273C1321.25 374.675 1319.91 374.312 1318.71 373.731C1317.54 373.09 1316.47 372.216 1315.92 370.743Z" fill="white" fill-opacity="0.2"/>
<path d="M1318.41 359.961C1320.08 360.022 1321.32 360.567 1322.51 361.215C1323.67 361.925 1324.76 362.722 1325.61 364.135C1323.95 364.376 1322.56 363.886 1321.31 363.202C1320.1 362.457 1319 361.503 1318.41 359.961Z" fill="white" fill-opacity="0.2"/>
<path d="M1323.71 346.985C1325.29 346.92 1326.46 347.442 1327.54 348.102C1328.57 348.823 1329.51 349.685 1330.05 351.138C1328.47 351.207 1327.3 350.683 1326.23 350.02C1325.19 349.297 1324.25 348.435 1323.71 346.985Z" fill="white" fill-opacity="0.2"/>
<path d="M1329.13 329.3C1330.39 329.18 1331.18 329.59 1331.85 330.124C1332.48 330.713 1332.99 331.428 1333.02 332.677C1331.75 332.801 1330.97 332.391 1330.29 331.852C1329.67 331.259 1329.16 330.545 1329.13 329.3Z" fill="white" fill-opacity="0.2"/>
<path d="M1340.34 312.71C1341.29 313.869 1341.51 314.966 1341.57 316.077C1341.55 317.188 1341.36 318.292 1340.44 319.481C1339.49 318.411 1339.26 317.259 1339.21 316.114C1339.23 314.966 1339.43 313.808 1340.34 312.71Z" fill="white" fill-opacity="0.2"/>
<path d="M1348.86 330.861C1348.92 332.076 1348.6 332.749 1348.17 333.377C1347.68 333.964 1347.11 334.453 1345.9 334.737C1345.46 333.587 1345.78 332.706 1346.28 331.994C1346.84 331.325 1347.61 330.777 1348.86 330.861Z" fill="white" fill-opacity="0.2"/>
<path d="M1350.92 345.266C1350.52 346.783 1349.79 347.76 1348.99 348.706C1348.14 349.607 1347.24 350.427 1345.75 351.01C1345.67 349.434 1346.35 348.202 1347.23 347.18C1348.16 346.205 1349.31 345.389 1350.92 345.266Z" fill="white" fill-opacity="0.2"/>
<path d="M1353.89 360.418C1353.14 362.267 1351.92 363.581 1350.58 364.774C1349.2 365.911 1347.7 366.918 1345.73 367.39C1346.47 365.539 1347.7 364.222 1349.04 363.034C1350.42 361.901 1351.92 360.894 1353.89 360.418Z" fill="white" fill-opacity="0.2"/>
<path d="M1352.96 372.892C1352.6 374.269 1351.9 375.018 1351.08 375.637C1350.23 376.2 1349.28 376.614 1347.83 376.51C1348.09 375.2 1348.85 374.407 1349.71 373.764C1350.61 373.178 1351.62 372.721 1352.96 372.892Z" fill="white" fill-opacity="0.2"/>
<path d="M1372.5 372.361C1373.87 372.156 1374.85 372.539 1375.72 373.061C1376.56 373.643 1377.3 374.368 1377.64 375.685C1376.27 375.895 1375.3 375.512 1374.43 374.988C1373.59 374.399 1372.85 373.673 1372.5 372.361Z" fill="white" fill-opacity="0.2"/>
<path d="M1376.52 360.05C1377.7 359.658 1378.57 359.905 1379.36 360.295C1380.11 360.747 1380.78 361.353 1381.05 362.551C1379.8 362.914 1378.96 362.687 1378.2 362.306C1377.48 361.862 1376.85 361.275 1376.52 360.05Z" fill="white" fill-opacity="0.2"/>
<path d="M1381.04 345.558C1382.15 345.39 1382.71 345.591 1383.2 345.911C1383.65 346.288 1384 346.752 1384.14 347.856C1383.12 348.369 1382.36 348.144 1381.78 347.752C1381.24 347.304 1380.81 346.652 1381.04 345.558Z" fill="white" fill-opacity="0.2"/>
<path d="M1388.69 327.542C1389.61 328.518 1389.85 329.417 1389.96 330.343C1390 331.276 1389.9 332.199 1389.15 333.301C1388.06 332.502 1387.72 331.51 1387.61 330.521C1387.57 329.525 1387.75 328.494 1388.69 327.542Z" fill="white" fill-opacity="0.2"/>
<path d="M1397.97 346.123C1398.18 347.189 1398.06 347.674 1397.81 348.133C1397.5 348.555 1397.11 348.869 1396.03 349.137C1395.34 348.269 1395.47 347.494 1395.82 346.903C1396.22 346.346 1396.87 345.892 1397.97 346.123Z" fill="white" fill-opacity="0.2"/>
<path d="M1402.52 359.372C1402.89 360.402 1402.68 361.002 1402.34 361.502C1401.94 361.957 1401.4 362.31 1400.29 362.228C1399.92 361.195 1400.13 360.593 1400.47 360.097C1400.87 359.645 1401.41 359.294 1402.52 359.372Z" fill="white" fill-opacity="0.2"/>
<path d="M1407.65 371.876C1407.67 373.056 1407.22 373.697 1406.67 374.215C1406.06 374.676 1405.34 375.007 1404.15 374.797C1404.13 373.613 1404.58 372.972 1405.14 372.459C1405.74 372.002 1406.46 371.67 1407.65 371.876Z" fill="white" fill-opacity="0.2"/>
<path d="M1417.4 369.685C1418.7 369.405 1419.69 369.761 1420.57 370.252C1421.42 370.806 1422.18 371.51 1422.5 372.781C1421.12 373.019 1420.19 372.692 1419.33 372.214C1418.51 371.675 1417.8 370.997 1417.4 369.685Z" fill="white" fill-opacity="0.2"/>
<path d="M1422.69 356.027C1424.06 356.038 1424.9 356.43 1425.71 356.922C1426.48 357.472 1427.16 358.091 1427.68 359.336C1426.36 359.749 1425.29 359.392 1424.39 358.833C1423.53 358.218 1422.79 357.372 1422.69 356.027Z" fill="white" fill-opacity="0.2"/>
<path d="M1427.4 344.348C1428.34 343.872 1428.89 343.982 1429.34 344.231C1429.75 344.541 1430.07 344.991 1429.98 346.035C1429.03 346.516 1428.48 346.405 1428.03 346.152C1427.63 345.838 1427.31 345.385 1427.4 344.348Z" fill="white" fill-opacity="0.2"/>
<path d="M1435.6 328.694C1436.67 329.621 1437.03 330.647 1437.23 331.697C1437.34 332.758 1437.29 333.841 1436.52 335.025C1435.44 334.098 1435.08 333.074 1434.89 332.022C1434.78 330.963 1434.83 329.878 1435.6 328.694Z" fill="white" fill-opacity="0.2"/>
<path d="M1444.61 344.3C1444.7 345.326 1444.64 345.677 1444.43 345.991C1444.17 346.268 1443.84 346.402 1442.79 346.55C1442.07 345.777 1442.22 345.049 1442.58 344.562C1442.99 344.109 1443.67 343.795 1444.61 344.3Z" fill="white" fill-opacity="0.2"/>
<path d="M1448.8 354.015C1448.91 355.461 1448.51 356.483 1447.99 357.462C1447.41 358.406 1446.73 359.272 1445.4 359.922C1445.03 358.51 1445.39 357.358 1445.94 356.33C1446.56 355.338 1447.37 354.437 1448.8 354.015Z" fill="white" fill-opacity="0.2"/>
<path d="M1454.07 369.41C1453.69 370.982 1452.83 372.038 1451.86 372.963C1451.36 373.39 1450.89 373.771 1450.38 374.111C1449.89 374.472 1449.39 374.79 1448.78 375.351C1448.42 374.593 1448.59 373.706 1448.92 373.015C1449.25 372.296 1449.76 371.746 1450.26 371.268C1451.3 370.389 1452.44 369.644 1454.07 369.41Z" fill="white" fill-opacity="0.2"/>
<path d="M1461.07 371.012C1462.34 371.14 1463.03 371.556 1463.67 372.075C1464.26 372.643 1464.75 373.271 1465 374.505C1463.74 374.816 1462.81 374.386 1462.08 373.784C1461.4 373.13 1460.88 372.264 1461.07 371.012Z" fill="white" fill-opacity="0.2"/>
<path d="M1465.15 361.249C1466.27 360.957 1466.99 361.301 1467.54 361.78C1468.03 362.308 1468.39 363.007 1468.1 364.116C1466.94 364.161 1466.37 363.847 1465.88 363.421C1465.44 362.942 1465.11 362.384 1465.15 361.249Z" fill="white" fill-opacity="0.2"/>
<path d="M1480.18 362.852C1480.65 363.711 1480.57 364.101 1480.37 364.383C1480.12 364.616 1479.73 364.735 1478.8 364.385C1478.33 363.523 1478.4 363.131 1478.61 362.854C1478.87 362.624 1479.25 362.505 1480.18 362.852Z" fill="white" fill-opacity="0.2"/>
<path d="M1484.37 373.021C1484.58 374.329 1484.05 375.282 1483.37 376.033C1482.62 376.737 1481.67 377.28 1480.32 377.118C1480.54 375.817 1481.06 375.098 1481.67 374.429C1482.33 373.807 1483.05 373.281 1484.37 373.021Z" fill="white" fill-opacity="0.2"/>
<path d="M1505.6 369.171C1505.88 370.243 1505.7 370.771 1505.37 371.204C1504.99 371.59 1504.48 371.848 1503.35 371.735C1502.97 370.767 1503.21 370.172 1503.58 369.702C1504 369.277 1504.56 368.955 1505.6 369.171Z" fill="white" fill-opacity="0.2"/>
<path d="M1507.65 376.081C1507.76 377.254 1507.41 377.887 1506.93 378.406C1506.39 378.874 1505.75 379.214 1504.55 379.09C1504.38 377.962 1504.77 377.3 1505.27 376.765C1505.82 376.282 1506.51 375.912 1507.65 376.081Z" fill="white" fill-opacity="0.2"/>
<path d="M1489.83 371.632C1491.07 371.606 1491.77 372.056 1492.35 372.619C1492.88 373.232 1493.28 373.957 1493.14 375.165C1491.9 375.196 1491.19 374.745 1490.62 374.178C1490.09 373.563 1489.7 372.836 1489.83 371.632Z" fill="white" fill-opacity="0.2"/>
<path d="M1199.6 377.406C1200.77 376.903 1201.67 377.053 1202.49 377.354C1203.29 377.722 1204.01 378.248 1204.45 379.426C1203.28 379.932 1202.39 379.783 1201.57 379.478C1200.77 379.105 1200.05 378.581 1199.6 377.406Z" fill="white" fill-opacity="0.2"/>
<path d="M1204.58 367.918C1205.8 367.526 1206.62 367.734 1207.37 368.089C1208.09 368.509 1208.72 369.076 1209.04 370.289C1207.88 370.711 1207.02 370.488 1206.25 370.118C1205.52 369.685 1204.86 369.1 1204.58 367.918Z" fill="white" fill-opacity="0.2"/>
<path d="M1221.4 370.062C1221.48 371.131 1221.13 371.629 1220.69 371.991C1220.2 372.296 1219.61 372.461 1218.59 372.049C1218.51 370.975 1218.86 370.477 1219.31 370.118C1219.8 369.819 1220.39 369.655 1221.4 370.062Z" fill="white" fill-opacity="0.2"/>
<path d="M1224.05 377.406C1224.09 378.434 1223.69 378.865 1223.23 379.108C1222.73 379.285 1222.14 379.283 1221.39 378.553C1221.57 377.538 1221.88 377.202 1222.28 376.997C1222.7 376.854 1223.16 376.854 1224.05 377.406Z" fill="white" fill-opacity="0.2"/>
<path d="M1178.58 376.115C1179.92 375.7 1180.96 375.929 1181.94 376.312C1182.89 376.761 1183.77 377.365 1184.35 378.621C1183.01 379.041 1181.96 378.811 1180.99 378.424C1180.04 377.969 1179.16 377.365 1178.58 376.115Z" fill="white" fill-opacity="0.2"/>
<path d="M1184.49 365.967C1185.61 365.492 1186.41 365.653 1187.13 365.96C1187.82 366.333 1188.44 366.859 1188.73 368.021C1187.61 368.5 1186.81 368.342 1186.09 368.028C1185.4 367.651 1184.78 367.125 1184.49 365.967Z" fill="white" fill-opacity="0.2"/>
<path d="M1198.58 366.563C1198.94 367.535 1198.72 368.081 1198.38 368.509C1197.98 368.888 1197.45 369.161 1196.42 368.91C1196.12 367.877 1196.3 367.366 1196.63 366.963C1197.01 366.608 1197.51 366.375 1198.58 366.563Z" fill="white" fill-opacity="0.2"/>
<path d="M1192.56 352.744C1193.34 353.621 1193.46 354.288 1193.46 354.972C1193.38 355.65 1193.17 356.295 1192.27 357.066C1191.3 356.393 1191.09 355.587 1191.11 354.823C1191.19 354.059 1191.51 353.288 1192.56 352.744Z" fill="white" fill-opacity="0.2"/>
<path d="M539.959 475.123C572.456 456.002 605.534 437.973 638.732 420.164L663.682 406.906L688.749 393.844C697.127 389.459 705.715 385.239 714.67 381.574C723.594 377.854 733.006 374.914 742.755 373.164C747.631 372.311 752.591 371.776 757.578 371.726C760.067 371.625 762.55 371.893 765.03 371.965C766.268 372.038 767.51 372.053 768.742 372.177L772.413 372.725C777.336 373.296 782.091 374.595 786.826 375.814L793.769 378.112C796.075 378.887 798.27 379.915 800.518 380.805C809.389 384.633 817.826 389.202 825.837 394.296C833.892 399.322 841.687 404.657 849.392 410.063C857.138 415.409 864.751 420.907 872.561 426.094C876.489 428.643 880.388 431.243 884.389 433.657C888.371 436.104 892.33 438.748 896.406 439.657C900.427 440.649 904.532 439.218 908.526 437.087C912.514 434.874 916.643 432.399 920.695 430.067L945.112 415.879L957.295 408.74C961.395 406.395 965.257 403.914 969.846 401.636C972.138 400.528 974.607 399.527 977.313 398.871C980.006 398.218 982.994 397.973 985.875 398.313C991.651 399.016 996.474 401.467 1000.74 403.773C1017.26 413.027 1033.5 422.383 1049.84 431.793L1074.3 445.884C1082.46 450.58 1090.4 455.169 1098.6 458.351C1106.73 461.519 1115.38 463.238 1124.42 464.074C1133.43 464.947 1142.74 464.901 1152.22 465.044C1190.05 465.65 1227.89 466.376 1265.72 467.627C1303.56 468.805 1341.39 470.368 1379.21 472.57L1379.2 473.724C1341.34 475.277 1303.49 476.19 1265.64 476.721C1227.79 477.325 1189.95 477.403 1152.11 477.36C1142.67 477.321 1133.02 477.264 1123.2 476.327C1118.29 475.853 1113.35 475.142 1108.42 474.066C1103.51 472.979 1098.59 471.412 1093.94 469.483C1084.61 465.624 1076.31 460.532 1068.27 455.69L1044.12 441.097C1028.02 431.393 1011.86 421.597 995.95 411.767C992.091 409.422 988.33 407.469 984.668 406.883C981.113 406.229 977.249 407.086 973.233 408.786C969.267 410.475 965.036 412.828 960.843 414.935L948.271 421.394L923.177 434.402C918.96 436.572 914.895 438.737 910.551 440.909C908.36 441.98 906.017 442.985 903.442 443.55C900.891 444.137 898.026 444.146 895.462 443.468C892.887 442.823 890.601 441.686 888.486 440.48C886.361 439.265 884.409 437.994 882.398 436.734C878.368 434.251 874.469 431.6 870.534 428.996L847.206 413.134C839.401 407.931 831.467 402.946 823.341 398.363C815.185 393.833 806.736 389.91 798.08 386.772C795.893 386.058 793.751 385.2 791.541 384.603L784.909 382.849C780.431 382.005 775.974 381.074 771.454 380.848L768.083 380.554C766.958 380.5 765.83 380.552 764.705 380.543C762.457 380.602 760.207 380.456 757.972 380.669C753.498 380.909 749.063 381.721 744.653 382.593C726.98 386.383 710.322 394.576 693.564 402.918L668.32 415.602L642.963 428.097C609.082 444.626 575.084 460.932 540.505 476.147L539.959 475.123Z" fill="white" fill-opacity="0.2"/>
<path d="M1080.19 455.781C1085.3 448.822 1091.1 442.351 1097.48 436.483C1100.5 446.458 1104.56 456.13 1109.57 465.299C1110.91 457.626 1113.16 450.106 1116.26 442.939C1120.27 451.009 1124.29 459.079 1128.3 467.146C1133.48 456.717 1138.65 446.287 1143.83 435.855C1145.58 446.64 1148.25 457.282 1151.82 467.627C1156.28 458.713 1160.74 449.801 1165.21 440.887C1169.53 450.334 1173.3 460.016 1176.52 469.874C1181.28 462.989 1186.05 456.106 1190.81 449.221C1194.25 456.582 1197.68 463.944 1201.12 471.306C1205.88 464.384 1210.64 457.461 1215.4 450.539C1218.26 456.006 1221.11 461.476 1223.97 466.943C1227.46 462.171 1230.96 457.401 1234.46 452.629C1237.16 457.511 1239.87 462.392 1242.57 467.274C1247.01 462.768 1251.45 458.263 1255.89 453.757C1259.71 459.152 1263.54 464.548 1267.36 469.944C1209.47 473.213 1150.39 476.372 1094.4 461.595L1080.19 455.781Z" fill="white" fill-opacity="0.2"/>
<path d="M708.724 343.183L808.646 256.097L809.904 254.999L811.241 256.092L891.919 321.97L887.31 327.225L808.65 259.045L811.245 259.043L708.724 343.183Z" fill="white" fill-opacity="0.2"/>
<path d="M1251.86 406.8C1257.23 406.54 1262.61 406.428 1267.98 406.237L1284.09 405.917C1294.84 405.726 1305.58 405.744 1316.33 405.648C1327.07 405.739 1337.81 405.729 1348.56 405.913L1364.67 406.235C1370.04 406.428 1375.42 406.538 1380.79 406.8C1375.42 407.062 1370.05 407.175 1364.67 407.365L1348.56 407.688C1337.81 407.872 1327.07 407.863 1316.33 407.952C1305.58 407.855 1294.84 407.874 1284.09 407.684L1267.98 407.363C1262.61 407.173 1257.23 407.062 1251.86 406.8Z" fill="white" fill-opacity="0.2"/>
<path d="M1443 399.458C1449.75 398.551 1456.5 398.341 1463.24 398.304C1469.99 398.337 1476.73 398.545 1483.48 399.458C1476.73 400.372 1469.99 400.58 1463.24 400.612C1456.5 400.576 1449.75 400.368 1443 399.458Z" fill="white" fill-opacity="0.2"/>
<path d="M1353.06 392.116C1360.05 391.209 1367.05 390.999 1374.05 390.962C1381.04 390.994 1388.04 391.202 1395.03 392.116C1388.04 393.03 1381.04 393.238 1374.05 393.27C1367.05 393.233 1360.05 393.025 1353.06 392.116Z" fill="white" fill-opacity="0.2"/>
<path d="M1074.96 399.458C1078.21 399.199 1081.46 399.086 1084.71 398.895L1094.45 398.575C1100.95 398.363 1107.45 398.335 1113.94 398.304C1120.44 398.33 1126.93 398.361 1133.43 398.571L1143.17 398.893C1146.42 399.086 1149.67 399.196 1152.92 399.458C1149.67 399.72 1146.42 399.833 1143.17 400.026L1133.43 400.348C1126.93 400.558 1120.44 400.589 1113.94 400.615C1107.44 400.584 1100.95 400.556 1094.45 400.344L1084.71 400.024C1081.46 399.831 1078.21 399.72 1074.96 399.458Z" fill="white" fill-opacity="0.2"/>
<path d="M1149.92 422.219C1153.3 421.959 1156.67 421.847 1160.04 421.656L1170.16 421.336C1176.91 421.123 1183.66 421.095 1190.4 421.065C1197.15 421.091 1203.89 421.121 1210.64 421.331L1220.76 421.654C1224.13 421.847 1227.51 421.959 1230.88 422.221C1227.51 422.483 1224.13 422.596 1220.76 422.786L1210.64 423.109C1203.89 423.319 1197.15 423.349 1190.4 423.375C1183.66 423.347 1176.91 423.317 1170.16 423.105L1160.04 422.784C1156.67 422.591 1153.3 422.479 1149.92 422.219Z" fill="white" fill-opacity="0.2"/>
<path d="M1066.72 421.485C1075.71 420.577 1084.71 420.367 1093.7 420.331C1102.7 420.363 1111.69 420.571 1120.69 421.485C1111.69 422.398 1102.7 422.606 1093.7 422.639C1084.71 422.602 1075.72 422.394 1066.72 421.485Z" fill="white" fill-opacity="0.2"/>
<path d="M1269.85 442.043C1276.6 441.136 1283.35 440.926 1290.09 440.889C1296.84 440.922 1303.59 441.13 1310.33 442.043C1303.58 442.957 1296.84 443.165 1290.09 443.197C1283.35 443.161 1276.6 442.951 1269.85 442.043Z" fill="white" fill-opacity="0.2"/>
<path d="M1340.31 428.093C1343.62 427.833 1346.93 427.72 1350.25 427.53L1360.18 427.209C1366.8 426.999 1373.42 426.969 1380.04 426.939C1386.66 426.965 1393.28 426.995 1399.9 427.205L1409.84 427.528C1413.15 427.72 1416.46 427.833 1419.77 428.093C1416.46 428.355 1413.15 428.467 1409.84 428.658L1399.9 428.981C1393.28 429.191 1386.66 429.221 1380.04 429.247C1373.42 429.219 1366.8 429.188 1360.18 428.976L1350.25 428.656C1346.93 428.465 1343.62 428.353 1340.31 428.093Z" fill="white" fill-opacity="0.2"/>
<path d="M1440.01 431.765C1446.75 430.858 1453.5 430.648 1460.24 430.611C1466.99 430.643 1473.74 430.851 1480.48 431.765C1473.74 432.679 1466.99 432.886 1460.24 432.919C1453.5 432.88 1446.75 432.672 1440.01 431.765Z" fill="white" fill-opacity="0.2"/>
<path d="M1344.06 455.257C1351.8 454.35 1359.55 454.14 1367.3 454.103C1375.04 454.136 1382.79 454.343 1390.53 455.257C1382.79 456.171 1375.04 456.379 1367.3 456.411C1359.55 456.374 1351.8 456.166 1344.06 455.257Z" fill="white" fill-opacity="0.2"/>
<path d="M1188.9 403.13C1192.65 402.219 1196.39 402.015 1200.14 401.976C1203.89 402.011 1207.64 402.215 1211.38 403.13C1207.64 404.046 1203.89 404.25 1200.14 404.284C1196.39 404.245 1192.65 404.042 1188.9 403.13Z" fill="white" fill-opacity="0.2"/>
<path d="M1011.25 397.99C1016.5 397.078 1021.75 396.875 1027 396.836C1032.24 396.87 1037.49 397.074 1042.74 397.99C1037.49 398.906 1032.24 399.109 1027 399.144C1021.75 399.105 1016.5 398.901 1011.25 397.99Z" fill="white" fill-opacity="0.2"/>
<path d="M420.592 461.865C427.089 460.958 433.585 460.748 440.08 460.711C446.577 460.744 453.073 460.952 459.568 461.865C453.071 462.779 446.574 462.987 440.08 463.019C433.583 462.983 427.086 462.775 420.592 461.865Z" fill="white" fill-opacity="0.2"/>
<path d="M477.555 455.993C484.051 455.086 490.548 454.876 497.043 454.839C503.539 454.872 510.036 455.079 516.531 455.993C510.034 456.907 503.537 457.115 497.043 457.147C490.548 457.108 484.051 456.9 477.555 455.993Z" fill="white" fill-opacity="0.2"/>
<path d="M522.177 440.361C533.415 439.454 544.656 439.244 555.894 439.207C567.132 439.239 578.373 439.447 589.611 440.361C578.373 441.275 567.132 441.482 555.894 441.515C544.656 441.478 533.417 441.268 522.177 440.361Z" fill="white" fill-opacity="0.2"/>
<path d="M468.856 437.289C472.254 436.377 475.652 436.174 479.049 436.135C482.447 436.169 485.844 436.373 489.242 437.289C485.844 438.205 482.447 438.41 479.049 438.443C475.654 438.404 472.254 438.2 468.856 437.289Z" fill="white" fill-opacity="0.2"/>
<path d="M534.722 456.489C537.335 455.578 539.95 455.374 542.562 455.335C545.175 455.37 547.79 455.573 550.403 456.489C547.79 457.405 545.175 457.609 542.562 457.643C539.947 457.604 537.335 457.401 534.722 456.489Z" fill="white" fill-opacity="0.2"/>
</svg>
