<svg width="41" height="40" viewBox="0 0 41 40" fill="none" xmlns="http://www.w3.org/2000/svg">
<path fill-rule="evenodd" clip-rule="evenodd" d="M35.751 14.1666C35.751 11.8258 35.751 10.6554 35.1892 9.81468C34.946 9.45072 34.6335 9.13821 34.2695 8.89502C33.5342 8.40366 32.5466 8.34208 30.7443 8.33436C30.7511 8.82002 30.751 9.32751 30.751 9.85077L30.751 9.99992V12.0833H32.4176C33.108 12.0833 33.6676 12.6429 33.6676 13.3333C33.6676 14.0236 33.108 14.5833 32.4176 14.5833H30.751V17.0833H32.4176C33.108 17.0833 33.6676 17.6429 33.6676 18.3333C33.6676 19.0236 33.108 19.5833 32.4176 19.5833H30.751V22.0833H32.4176C33.108 22.0833 33.6676 22.6429 33.6676 23.3333C33.6676 24.0236 33.108 24.5833 32.4176 24.5833H30.751V35.4166H28.251V9.99992C28.251 6.85722 28.251 5.28587 27.2747 4.30956C26.2984 3.33325 24.727 3.33325 21.5843 3.33325H18.251C15.1083 3.33325 13.5369 3.33325 12.5606 4.30956C11.5843 5.28587 11.5843 6.85722 11.5843 9.99992V35.4166H9.08431V24.5833H7.41764C6.72729 24.5833 6.16764 24.0236 6.16764 23.3333C6.16764 22.6429 6.72729 22.0833 7.41764 22.0833H9.08431V19.5833H7.41764C6.72729 19.5833 6.16764 19.0236 6.16764 18.3333C6.16764 17.6429 6.72729 17.0833 7.41764 17.0833H9.08431V14.5833H7.41764C6.72729 14.5833 6.16764 14.0236 6.16764 13.3333C6.16764 12.6429 6.72729 12.0833 7.41764 12.0833H9.08431V9.99992L9.0843 9.85076C9.08424 9.32749 9.08418 8.82001 9.09103 8.33436C7.28868 8.34207 6.30112 8.40366 5.56574 8.89502C5.20178 9.13821 4.88927 9.45072 4.64608 9.81468C4.08431 10.6554 4.08431 11.8258 4.08431 14.1666V35.4166H3.25098C2.56062 35.4166 2.00098 35.9762 2.00098 36.6666C2.00098 37.3569 2.56062 37.9166 3.25098 37.9166H36.5843C37.2747 37.9166 37.8343 37.3569 37.8343 36.6666C37.8343 35.9762 37.2747 35.4166 36.5843 35.4166H35.751V14.1666ZM15.3343 19.5833C15.3343 18.8929 15.894 18.3333 16.5843 18.3333H23.251C23.9413 18.3333 24.501 18.8929 24.501 19.5833C24.501 20.2736 23.9413 20.8333 23.251 20.8333H16.5843C15.894 20.8333 15.3343 20.2736 15.3343 19.5833ZM15.3343 24.5833C15.3343 23.8929 15.894 23.3333 16.5843 23.3333H23.251C23.9413 23.3333 24.501 23.8929 24.501 24.5833C24.501 25.2736 23.9413 25.8333 23.251 25.8333H16.5843C15.894 25.8333 15.3343 25.2736 15.3343 24.5833ZM19.9176 30.4166C20.608 30.4166 21.1676 30.9762 21.1676 31.6666V35.4166H18.6676V31.6666C18.6676 30.9762 19.2273 30.4166 19.9176 30.4166ZM15.3343 10.4166C15.3343 9.72623 15.894 9.16658 16.5843 9.16658H23.251C23.9413 9.16658 24.501 9.72623 24.501 10.4166C24.501 11.1069 23.9413 11.6666 23.251 11.6666H16.5843C15.894 11.6666 15.3343 11.1069 15.3343 10.4166ZM15.3343 15.4166C15.3343 14.7262 15.894 14.1666 16.5843 14.1666H23.251C23.9413 14.1666 24.501 14.7262 24.501 15.4166C24.501 16.1069 23.9413 16.6666 23.251 16.6666H16.5843C15.894 16.6666 15.3343 16.1069 15.3343 15.4166Z" fill="#080063"/>
</svg>
