<svg width="41" height="40" viewBox="0 0 41 40" fill="none" xmlns="http://www.w3.org/2000/svg">
<path fill-rule="evenodd" clip-rule="evenodd" d="M4 16.6666C4 12.0642 7.73096 8.33325 12.3333 8.33325C12.7509 8.33325 13.1612 8.36396 13.5623 8.42324C14.566 5.46335 17.3676 3.33325 20.6667 3.33325C23.9657 3.33325 26.7673 5.46335 27.7711 8.42324C28.1721 8.36396 28.5825 8.33325 29 8.33325C33.6024 8.33325 37.3333 12.0642 37.3333 16.6666C37.3333 20.0838 35.2765 23.0206 32.3333 24.3065L32.3333 28.7499H9V24.3065C6.05683 23.0206 4 20.0838 4 16.6666ZM19.0714 22.7821C17.6081 21.7083 15.6667 19.9747 15.6667 18.334C15.6667 15.5453 18.4167 14.5041 20.6667 16.6583C22.9166 14.5041 25.6667 15.5453 25.6667 18.334C25.6667 19.9747 23.7253 21.7084 22.2619 22.7821C21.5623 23.2954 21.2125 23.552 20.6667 23.552C20.1208 23.552 19.771 23.2954 19.0714 22.7821Z" fill="#080063"/>
<path d="M9.97631 35.6903C9.13905 34.853 9.0198 33.5781 9.00282 31.2499H32.3305C32.3135 33.5781 32.1943 34.853 31.357 35.6903C30.3807 36.6666 28.8094 36.6666 25.6667 36.6666H15.6667C12.524 36.6666 10.9526 36.6666 9.97631 35.6903Z" fill="#080063"/>
</svg>
