<svg width="40" height="40" viewBox="0 0 40 40" fill="none" xmlns="http://www.w3.org/2000/svg">
<path d="M12.707 7.41491C15.835 6.16335 17.701 5.41675 19.9997 5.41675C22.2984 5.41675 24.1643 6.16334 27.2923 7.41491L32.2414 9.39458C33.8324 10.0309 35.121 10.5464 36.0056 11.0101C36.4532 11.2448 36.8869 11.5109 37.2213 11.8316C37.5649 12.1612 37.9163 12.661 37.9163 13.3334C37.9163 14.0058 37.5649 14.5056 37.2213 14.8352C36.8869 15.156 36.4532 15.422 36.0056 15.6567C35.121 16.1205 33.8324 16.6359 32.2414 17.2722L27.2923 19.2519C24.1643 20.5035 22.2984 21.2501 19.9997 21.2501C17.701 21.2501 15.835 20.5035 12.7071 19.2519L7.75793 17.2723C6.16696 16.6359 4.87835 16.1205 3.99378 15.6567C3.54612 15.422 3.11243 15.156 2.77802 14.8352C2.43442 14.5056 2.08301 14.0058 2.08301 13.3334C2.08301 12.661 2.43442 12.1612 2.77802 11.8316C3.11243 11.5109 3.54612 11.2448 3.99378 11.0101C4.87836 10.5464 6.16696 10.0309 7.75794 9.39457L12.707 7.41491Z" fill="#080063"/>
<path fill-rule="evenodd" clip-rule="evenodd" d="M4.16722 19.0692C4.16722 19.0692 4.16722 19.0692 4.16722 19.0692L4.16488 19.0671L4.1707 19.0721C4.17804 19.0785 4.19171 19.0902 4.21171 19.1069C4.25172 19.1403 4.31704 19.1936 4.40765 19.2637C4.5889 19.4037 4.87116 19.6106 5.25434 19.8591C6.02075 20.3561 7.18999 21.0192 8.76196 21.648L13.4427 23.5203C16.8175 24.8702 18.2323 25.4167 19.9997 25.4167C21.767 25.4167 23.1819 24.8702 26.5566 23.5203L31.2374 21.648C32.8094 21.0192 33.9786 20.3561 34.745 19.8591C35.1282 19.6106 35.4104 19.4037 35.5917 19.2637C35.6823 19.1936 35.7476 19.1403 35.7876 19.1069C35.8076 19.0902 35.8213 19.0785 35.8287 19.0721L35.8321 19.0692C35.833 19.0684 35.8339 19.0676 35.8348 19.0668C36.3488 18.6088 37.1368 18.6526 37.5968 19.1654C38.0578 19.6793 38.0149 20.4696 37.501 20.9306L36.6663 20.0001C37.501 20.9306 37.5013 20.9303 37.501 20.9306L37.4987 20.9326L37.4958 20.9352L37.4881 20.9421L37.4652 20.962C37.4467 20.978 37.4216 20.9995 37.3899 21.026C37.3265 21.0789 37.2367 21.152 37.1204 21.2418C36.8879 21.4215 36.5496 21.6685 36.1053 21.9566C35.2168 22.5328 33.9037 23.274 32.1659 23.9691L27.4851 25.8415C27.4203 25.8674 27.356 25.8931 27.2923 25.9186C24.1643 27.1702 22.2984 27.9167 19.9997 27.9167C17.701 27.9167 15.835 27.1702 12.7071 25.9186C12.6433 25.8931 12.5791 25.8674 12.5143 25.8415L7.83349 23.9691C6.09565 23.274 4.78253 22.5328 3.89404 21.9566C3.44977 21.6685 3.11143 21.4215 2.87895 21.2418C2.7627 21.152 2.67287 21.0789 2.60945 21.026C2.57774 20.9995 2.55262 20.978 2.5341 20.962L2.51127 20.9421L2.50356 20.9352L2.50063 20.9326L2.49884 20.931C2.49857 20.9308 2.49832 20.9306 3.33301 20.0001L2.49884 20.931C1.98495 20.47 1.94154 19.6793 2.40253 19.1654C2.86259 18.6525 3.65092 18.609 4.16488 19.0671M4.16722 19.0692C4.16722 19.0692 4.16722 19.0692 4.16722 19.0692V19.0692ZM4.16461 25.7335C3.65064 25.2755 2.86259 25.3192 2.40253 25.8321L4.16461 25.7335ZM4.16461 25.7335L4.1707 25.7388C4.17804 25.7452 4.19171 25.7569 4.21171 25.7736C4.25172 25.807 4.31704 25.8603 4.40765 25.9303C4.5889 26.0704 4.87116 26.2772 5.25434 26.5257C6.02075 27.0228 7.18999 27.6858 8.76196 28.3146L13.4427 30.1869C16.8175 31.5368 18.2323 32.0834 19.9997 32.0834C21.767 32.0834 23.1819 31.5368 26.5566 30.1869L31.2374 28.3146C32.8094 27.6858 33.9786 27.0228 34.745 26.5257C35.1282 26.2772 35.4104 26.0704 35.5917 25.9303C35.6823 25.8603 35.7476 25.807 35.7876 25.7736C35.8076 25.7569 35.8213 25.7452 35.8287 25.7388L35.8321 25.7358C35.833 25.735 35.8339 25.7342 35.8348 25.7334C36.3488 25.2755 37.1368 25.3192 37.5968 25.8321C38.0578 26.3459 38.0149 27.1362 37.501 27.5972L36.694 26.6976C37.501 27.5972 37.5013 27.597 37.501 27.5972L37.4987 27.5993L37.4958 27.6019L37.4881 27.6087L37.4652 27.6287C37.4467 27.6447 37.4216 27.6662 37.3899 27.6926C37.3265 27.7456 37.2367 27.8186 37.1204 27.9085C36.8879 28.0881 36.5496 28.3351 36.1053 28.6233C35.2168 29.1995 33.9037 29.9407 32.1659 30.6358L27.4851 32.5081C27.4203 32.534 27.356 32.5598 27.2923 32.5853C24.1643 33.8368 22.2984 34.5834 19.9997 34.5834C17.701 34.5834 15.835 33.8368 12.7071 32.5853C12.6433 32.5598 12.5791 32.534 12.5143 32.5081L7.83349 30.6358C6.09565 29.9407 4.78253 29.1995 3.89404 28.6233C3.44977 28.3351 3.11143 28.0881 2.87895 27.9085C2.7627 27.8186 2.67287 27.7456 2.60945 27.6926C2.57774 27.6662 2.55262 27.6447 2.5341 27.6287L2.51127 27.6087L2.50356 27.6019L2.50063 27.5993L2.49884 27.5977C2.49857 27.5975 2.49832 27.5972 3.33301 26.6667L2.49884 27.5977C1.98495 27.1367 1.94154 26.3459 2.40253 25.8321" fill="#080063"/>
</svg>
