<svg width="26" height="27" viewBox="0 0 26 27" fill="none" xmlns="http://www.w3.org/2000/svg">
<g clip-path="url(#clip0_87_4863)">
<path d="M25.5516 21.534H0.448295C0.200737 21.534 0 21.3332 0 21.0857V4.94781C0 4.70025 0.200737 4.49951 0.448295 4.49951H25.5517C25.7992 4.49951 25.9999 4.70025 25.9999 4.94781V21.0857C25.9999 21.3332 25.7992 21.534 25.5516 21.534Z" fill="#41479B"/>
<path d="M25.9999 4.94781C25.9999 4.70025 25.7992 4.49951 25.5516 4.49951H23.546L15.2413 9.94055V4.49951H10.7585V9.94055L2.45384 4.49951H0.448295C0.200737 4.49951 0 4.70025 0 4.94781V6.10719L7.12504 10.7753H0V15.2581H7.12504L0 19.9263V21.0857C0 21.3332 0.200737 21.534 0.448295 21.534H2.45389L10.7586 16.0929V21.534H15.2414V16.0929L23.5461 21.534H25.5517C25.7993 21.534 26 21.3332 26 21.0857V19.9263L18.875 15.2581H25.9999V10.7754H18.8749L25.9999 6.10719V4.94781Z" fill="#F5F5F5"/>
<path d="M25.9999 11.6719H14.3448V4.49951H11.6551V11.6719H0V14.3615H11.6551V21.534H14.3448V14.3615H25.9999V11.6719Z" fill="#FF4B55"/>
<path d="M9.08717 15.2583L0.0126953 21.1487C0.0444335 21.3652 0.222929 21.5342 0.448244 21.5342H1.06569L10.7339 15.2584H9.08717V15.2583V15.2583Z" fill="#FF4B55"/>
<path d="M17.5901 15.2583H15.9434L25.5975 21.5249C25.8225 21.5009 26.0001 21.3172 26.0001 21.0858V20.7173L17.5901 15.2583Z" fill="#FF4B55"/>
<path d="M0 5.44289L8.21531 10.7756H9.86204L0.261167 4.54346C0.107808 4.6147 0 4.76781 0 4.94803V5.44289Z" fill="#FF4B55"/>
<path d="M16.8889 10.7753L25.9852 4.87067C25.9474 4.66135 25.7727 4.49951 25.5525 4.49951H24.9102L15.2422 10.7753H16.8889Z" fill="#FF4B55"/>
</g>
<defs>
<clipPath id="clip0_87_4863">
<rect width="26" height="26" fill="white" transform="translate(0 0.0166016)"/>
</clipPath>
</defs>
</svg>
