<svg width="70" height="60" viewBox="0 0 70 60" fill="none" xmlns="http://www.w3.org/2000/svg">
<path d="M34.6566 0.925488C33.6472 1.43019 32.7459 1.92288 32.6377 2.01901C32.4575 2.16322 30.643 5.39573 27.9993 10.2625C27.3864 11.3801 26.8216 12.4135 26.7375 12.5577C26.5813 12.7981 26.4251 12.6539 23.4569 9.68572L20.3446 6.57337L19.8038 7.57077C19.5034 8.12354 18.1575 10.7312 16.8117 13.3508C15.4658 15.9825 14.3362 18.1335 14.3001 18.1335C14.2641 18.1335 13.7354 17.3404 13.1225 16.3911C12.4976 15.4297 11.9569 14.6486 11.9208 14.6486C11.8247 14.6486 11.5964 15.0332 9.45738 18.7344C8.60419 20.2244 6.72957 23.4089 5.28756 25.8242C3.85756 28.2396 2.18723 31.0395 1.58639 32.0369L0.504883 33.8755L25.2715 33.8635L50.0501 33.8515L47.2261 33.5631C45.6759 33.4068 43.0082 33.1184 41.3018 32.9262L38.2015 32.5657L36.6153 31.8927C35.7381 31.5202 34.933 31.1236 34.8248 31.0155C34.7166 30.9073 33.9836 29.1889 33.1905 27.2062C32.3974 25.2234 31.4601 22.9162 31.1236 22.087L30.4988 20.5729L31.0155 20.0922C31.5442 19.6116 32.5656 18.6863 36.4471 15.1894C37.6127 14.1439 38.574 13.2187 38.574 13.1465C38.574 13.0744 38.4899 12.4736 38.3938 11.8127C38.2976 11.1638 37.9732 8.80849 37.6728 6.59741C37.3724 4.38632 37.0479 2.05507 36.9638 1.43019C36.8677 0.805321 36.8196 0.276581 36.8316 0.252548C36.8797 0.204483 37.2161 0.853386 41.6503 9.30118C43.561 12.9302 45.3034 16.2589 45.5317 16.6915L45.9403 17.4846L45.3275 18.3979C44.1378 20.1643 40.3886 25.9444 40.4366 25.9444C40.5208 25.9444 43.1164 22.8801 44.8107 20.7772C45.7 19.6837 46.457 18.7824 46.5171 18.7584C46.5772 18.7344 47.2261 19.936 47.9712 21.4261L49.317 24.1299L48.572 25.0311C48.1634 25.5358 47.851 25.9444 47.875 25.9444C47.9111 25.9444 48.2596 25.5599 48.6681 25.1032L49.3891 24.2501L49.8217 25.1874C50.6269 26.9418 51.9968 29.97 52.0448 30.1022C52.0689 30.1743 52.6216 30.655 53.2706 31.1597C54.5924 32.1811 54.3761 32.109 59.5073 33.3948L61.3939 33.8755L64.5543 33.8635C67.6306 33.8515 67.6907 33.8515 66.8135 33.6832C66.3208 33.5871 64.7466 33.2386 63.3286 32.8901C60.9493 32.3133 60.7089 32.2292 60.2523 31.8447C59.9879 31.6043 58.9545 30.7151 57.9451 29.8619L56.1305 28.3237L55.9984 27.6388C55.9142 27.2663 55.5658 25.5839 55.2173 23.9016C54.8568 22.2192 54.5924 20.8253 54.6044 20.8133C54.6284 20.7892 55.3134 21.8827 56.1305 23.2406C56.9477 24.5985 57.6927 25.8122 57.7768 25.9204C57.921 26.1127 57.9331 26.1006 57.873 25.8843C57.8369 25.7521 57.7288 23.6372 57.6206 21.1978C57.5245 18.7464 57.4043 16.2108 57.3683 15.5499C57.3202 14.889 57.3202 14.3723 57.3563 14.4083C57.4043 14.4564 57.885 15.3216 58.4378 16.331C61.8625 22.6518 67.7748 32.9742 68.2074 33.3828C68.3877 33.551 62.4994 21.8347 59.7476 16.5473C57.9691 13.1465 57.3442 12.053 57.2601 12.1732C57.2 12.2693 56.443 13.3508 55.5778 14.5886C54.1838 16.5954 54.0156 16.7997 53.9195 16.5473C53.8714 16.3911 53.3547 14.9971 52.7899 13.447C51.432 9.69773 51.468 9.78185 51.2758 9.95009C51.1796 10.0222 50.1222 11.4882 48.9085 13.2066C47.6948 14.925 46.6733 16.331 46.6253 16.331C46.5892 16.331 45.5317 14.204 44.282 11.6084C41.3619 5.53993 39.4392 1.65851 39.2109 1.40616C38.9345 1.10574 36.9518 -0.0118217 36.6994 0.000198364C36.5672 0.000198364 35.654 0.420784 34.6566 0.925488ZM21.1617 9.3132C21.378 9.55353 22.5677 10.6471 23.7934 11.7406C25.0191 12.8461 26.0045 13.7955 25.9805 13.8555C25.9204 14.0478 21.0175 23.1085 20.9214 23.2166C20.8733 23.2647 20.5969 22.9643 20.3085 22.5557C20.0201 22.1351 19.3832 21.2939 18.9026 20.6931C18.4219 20.0802 18.0253 19.5635 18.0253 19.5275C18.0253 19.5034 18.4339 19.6356 18.9386 19.8279C19.4313 20.0201 19.8879 20.1764 19.936 20.1764C20.0562 20.1764 20.1403 18.6863 20.3085 14.1079C20.3806 12.2573 20.4527 10.4668 20.4888 10.1424C20.5128 9.80589 20.5489 9.39732 20.5489 9.20505C20.5489 8.77244 20.657 8.79648 21.1617 9.3132ZM31.0515 32.1331C31.0155 32.2052 30.9193 32.2773 30.8352 32.2773C30.7391 32.2773 30.691 32.2052 30.7151 32.1331C30.7511 32.061 30.8472 31.9889 30.9314 31.9889C31.0275 31.9889 31.0756 32.061 31.0515 32.1331ZM30.7751 32.9983C30.655 33.2025 30.655 33.1905 30.643 32.9622C30.643 32.6858 30.7992 32.4695 30.8593 32.6618C30.8833 32.7339 30.8472 32.8781 30.7751 32.9983Z" fill="white"/>
<path fill-rule="evenodd" clip-rule="evenodd" d="M0 38.8862V40.0037L2.01882 40.0278L4.02562 40.0638L4.04965 45.231C4.07369 48.067 4.0857 50.4944 4.0857 50.6025C4.0857 50.7948 4.22991 50.8188 5.28738 50.8188H6.48906V45.4113V40.0037H8.592H10.6949V38.9222V37.8407L5.34747 37.8167L0 37.7806V38.8862ZM17.7849 37.9729C17.7849 38.1291 16.3429 41.5419 14.1318 46.6009C13.1704 48.8 12.3773 50.6386 12.3773 50.7107C12.3773 50.7708 12.9061 50.8188 13.579 50.8188H14.7807L15.0571 50.242C15.2133 49.9296 15.6099 49.0163 15.9343 48.1992L16.5231 46.7331L18.9745 46.7572L21.426 46.7932L22.2431 48.752C22.6877 49.8335 23.0723 50.7467 23.1083 50.7708C23.1324 50.8068 23.7332 50.8068 24.4302 50.7948L25.7039 50.7588L25.3314 49.9176C25.1271 49.4489 24.2499 47.4541 23.3727 45.4714C23.0104 44.6526 22.6134 43.7518 22.2398 42.9045L22.2392 42.9031L22.238 42.9004L22.2374 42.899C21.7073 41.6966 21.225 40.6025 20.9573 40.0037C20.5127 38.9823 20.0921 38.069 20.032 37.9849C19.8878 37.8047 17.7849 37.7806 17.7849 37.9729ZM19.996 43.2723L20.5367 44.5701H18.9745C18.1214 44.5701 17.4244 44.5461 17.4244 44.522C17.4244 44.486 17.7128 43.753 18.0733 42.8637C18.2293 42.4711 18.3829 42.0881 18.5092 41.7729L18.5093 41.7727L18.5096 41.772L18.5096 41.7719C18.6654 41.3834 18.7798 41.0981 18.8063 41.0252C18.9145 40.7488 19.0466 41.0131 19.996 43.2723ZM27.158 40.0037V38.9222V37.8407L32.4814 37.8648L37.7928 37.9008L37.8289 38.9463L37.8649 40.0037L35.75 40.0278L33.647 40.0638V45.4353V50.8188H32.3853H31.1235V45.4113V40.0037H29.1408H27.158ZM41.9385 44.3298V50.8188H43.1402H44.3418V48.3674V45.904L45.4954 45.8679L46.6491 45.8319L48.3434 48.3193L50.0498 50.8188H51.4798H52.8978L52.6935 50.4824C52.2729 49.8455 50.3022 47.0215 49.7975 46.3606L49.2927 45.6997L49.9537 45.4714C50.8309 45.171 51.6841 44.4019 52.0326 43.5847C52.4291 42.6835 52.4411 41.0372 52.0566 40.196C51.6721 39.3428 51.2635 38.8501 50.6386 38.4896C49.6773 37.9248 49.0284 37.8407 45.3392 37.8407H41.9385V44.3298ZM49.0284 40.3042C49.6052 40.6526 49.8936 41.2054 49.8936 41.9384C49.8936 42.6715 49.6412 43.08 48.9563 43.4285C48.5477 43.6328 48.2353 43.6689 46.4448 43.6689H44.4019V41.8303V39.9797L46.5049 40.0278C48.3554 40.0638 48.6559 40.0879 49.0284 40.3042ZM59.4387 42.6842C59.8507 41.7431 60.218 40.9042 60.4684 40.3282L61.562 37.8407H62.6074C63.6289 37.8407 63.6529 37.8527 63.8091 38.1652C63.8932 38.3574 64.3499 39.4149 64.8305 40.5445C65.3112 41.6621 66.0322 43.3204 66.4288 44.2096C67.6785 47.0215 68.5197 48.9202 68.9283 49.8815L69.3248 50.8188H68.027H66.7292L65.876 48.8L65.0228 46.7932L62.5473 46.7572L60.0839 46.7331L59.9517 47.0576C59.7474 47.6344 58.5217 50.5064 58.4136 50.6746C58.3535 50.7828 57.993 50.8188 57.1158 50.7948L55.9021 50.7588L57.6445 46.7932C58.1982 45.5177 58.8622 44.001 59.4387 42.6842ZM64.0134 44.4139C63.9773 44.3418 63.6409 43.5126 63.2684 42.5873C62.8958 41.6621 62.5714 40.893 62.5594 40.881C62.5113 40.8329 61.1654 44.2577 61.1654 44.4259C61.1654 44.5341 61.55 44.5701 62.6194 44.5701C63.737 44.5701 64.0615 44.5341 64.0134 44.4139Z" fill="white"/>
<path fill-rule="evenodd" clip-rule="evenodd" d="M53.5346 54.2916C52.4891 54.58 51.8763 55.0606 51.4797 55.9259C50.5304 57.9567 51.9364 60.0236 54.2556 59.9995C55.8538 59.9875 56.9714 59.0022 57.1637 57.44C57.2959 56.2984 56.5748 55.0246 55.5054 54.5199C55.0007 54.2675 54.0153 54.1594 53.5346 54.2916ZM55.1569 55.4933C55.6135 55.7336 56.1182 56.5507 56.1182 57.0554C56.1182 58.6657 54.4839 59.603 53.09 58.7738C52.357 58.3412 52.0565 57.0915 52.4891 56.2263C52.9338 55.325 54.1955 54.9765 55.1569 55.4933ZM39.475 55.3971C39.7994 54.9165 40.2801 54.592 41.0252 54.3517C41.5899 54.1594 42.6474 54.2315 43.1161 54.4718C43.2963 54.568 43.5727 54.7843 43.7289 54.9405L44.0053 55.2529L43.6688 55.5413L43.3324 55.8297L42.9238 55.5533C42.0826 54.9765 40.7848 55.2529 40.2561 56.1302C39.9557 56.6228 39.9436 57.5361 40.22 58.1129C40.5205 58.7618 41.0131 59.0142 41.9024 58.9661C42.7676 58.918 43.1401 58.6657 43.1401 58.1249C43.1401 57.8005 43.1281 57.7885 42.4792 57.7885H41.8183V57.3078V56.8271H42.9599C43.5847 56.8271 44.1015 56.8391 44.1015 56.8512C44.1077 56.8636 44.117 56.9846 44.1313 57.1683L44.1313 57.1686L44.1313 57.1688L44.1314 57.1696L44.1314 57.1703C44.1448 57.3424 44.1624 57.5691 44.1856 57.8125C44.2697 58.9541 44.1255 59.2425 43.2242 59.6631C42.4311 60.0236 41.1573 60.0596 40.4243 59.7232C38.9342 59.0382 38.4536 56.8632 39.475 55.3971ZM1.05734 58.918C-0.144341 57.2116 0.804984 54.7001 2.78775 54.3156C3.70103 54.1353 4.37397 54.2915 5.14304 54.8683C5.62371 55.2288 5.63573 55.4331 5.17909 55.6134C4.89069 55.7456 4.78254 55.7215 4.43405 55.5172C3.91733 55.2048 3.07616 55.1928 2.52338 55.4812C1.40582 56.082 1.35776 58.0888 2.43927 58.7498C3.01607 59.1103 3.9654 59.0742 4.42203 58.6897L4.42204 58.6897C4.63973 58.5083 4.74788 58.4181 4.8598 58.4132C4.97028 58.4083 5.08443 58.4864 5.31128 58.6416L5.65976 58.894L5.38338 59.1944C4.33792 60.336 1.93456 60.1797 1.05734 58.918ZM6.24858 59.8793C6.24858 59.7952 8.2674 55.0726 8.4837 54.628C8.6279 54.3636 8.73605 54.3036 9.12059 54.3036C9.1634 54.3036 9.20165 54.3018 9.23647 54.3002C9.30749 54.297 9.36427 54.2945 9.41657 54.3085C9.62526 54.3648 9.76247 54.6863 10.4472 56.2912L10.4476 56.2921C10.5461 56.523 10.6559 56.7804 10.7789 57.0674L10.9901 57.562C11.4022 58.5274 11.7661 59.38 11.8484 59.5549L12.0166 59.9514H11.4398H10.863L10.5506 59.1944L10.2381 58.4493H9.0605H7.88286L7.58244 59.1944L7.29404 59.9514H6.7653C6.48892 59.9514 6.24858 59.9154 6.24858 59.8793ZM9.82958 57.488C9.85361 57.476 9.72143 57.0914 9.54118 56.6348C9.36092 56.1782 9.18067 55.7696 9.14462 55.7215C9.09655 55.6615 8.89227 56.022 8.7 56.5146L8.32748 57.4039L9.0605 57.464C9.45706 57.5 9.80554 57.512 9.82958 57.488ZM13.1341 54.3877L12.8578 54.4357V57.1996V59.9514H13.3985H13.9393V58.942V57.9326L15.0208 57.8846C16.2345 57.8245 16.607 57.6562 16.9795 56.9352C17.1357 56.6348 17.1838 56.3704 17.1357 55.9499C17.0035 54.7362 16.2946 54.2915 14.5041 54.3156C13.9032 54.3276 13.2783 54.3636 13.1341 54.3877ZM15.8259 55.4451C16.1504 55.6735 16.2705 56.1541 16.0903 56.5026C15.874 56.8992 15.7538 56.9472 14.8165 56.9472H13.9393V56.1061V55.2649H14.7564C15.2731 55.2649 15.6577 55.325 15.8259 55.4451ZM20.5967 55.2649L20.6447 54.8083L20.6928 54.3636L22.8678 54.3877L22.8777 54.3878C25.0069 54.4117 25.043 54.4121 25.139 54.6761C25.3313 55.1688 25.1871 55.2649 24.2738 55.2649H23.4326V57.6082V59.9514H22.9519H22.4713L22.4593 58.7738C22.4472 58.1369 22.4352 57.5481 22.4112 57.488C22.3992 57.4159 22.3751 56.8992 22.3751 56.3104L22.3511 55.2649H21.4739H20.5967ZM26.653 56.4546C26.1483 57.6202 25.5956 58.8819 25.4273 59.2545L25.1149 59.9514H25.7037H26.2805L26.617 59.1704L26.9414 58.3893H28.071C29.2006 58.3893 29.2126 58.3893 29.3208 58.7137C29.7534 59.9034 29.7894 59.9514 30.4263 59.9514H31.0151L30.8349 59.615C30.7507 59.4347 30.3662 58.5575 30.0057 57.6683C28.9002 54.9525 28.6358 54.4357 28.3234 54.3757L28.2985 54.3711C28.0953 54.3337 27.9525 54.3075 27.8282 54.3441C27.5342 54.4306 27.3436 54.8684 26.7022 56.3417L26.653 56.4546ZM28.3354 56.1662C28.3955 56.3584 28.5397 56.7309 28.6478 56.9713L28.8401 57.4279H28.071H27.3019L27.6745 56.5387C27.8908 56.046 28.095 55.6735 28.1311 55.7215C28.1792 55.7696 28.2633 55.9619 28.3354 56.1662ZM45.6636 57.2116C45.6636 55.6975 45.6997 54.4237 45.7597 54.3636C45.8078 54.3156 46.5649 54.3036 47.4421 54.3396C48.824 54.3997 49.0884 54.4478 49.4008 54.6761C50.3862 55.373 50.3021 57.2116 49.2686 57.5721C49.0644 57.6322 48.9081 57.7283 48.9081 57.7764C48.9081 57.8245 49.1605 58.2571 49.4609 58.7498L49.5356 58.8704C49.9494 59.5381 50.113 59.8022 50.044 59.897C49.9989 59.9591 49.8543 59.9487 49.615 59.9315L49.557 59.9274L48.9682 59.8914L48.3674 58.906C47.9693 58.2532 47.835 58.0329 47.6429 57.955C47.545 57.9153 47.4322 57.9126 47.2618 57.9086H46.7451V58.93V59.9514H46.2044H45.6636V57.2116ZM49.0043 56.058C48.9802 55.6735 48.8961 55.5413 48.6678 55.4211C48.3433 55.2529 46.7932 55.2048 46.7091 55.361C46.625 55.4812 46.7211 56.6829 46.8172 56.8511C46.9254 57.0314 48.6077 56.9112 48.8481 56.7069C48.9802 56.5988 49.0283 56.3945 49.0043 56.058ZM58.4254 56.5747C58.4614 58.6656 58.4855 58.8819 58.7138 59.1944C59.1584 59.7832 59.6631 59.9995 60.5884 59.9755C61.6579 59.9635 62.2227 59.6991 62.5712 59.0382C62.8235 58.5815 62.8476 58.3652 62.8716 56.4546L62.9076 54.3636H62.3669H61.8261L61.7901 56.4185C61.766 58.2691 61.742 58.4974 61.5377 58.6897C61.1412 59.0382 60.0957 59.0502 59.579 58.7017C59.567 58.7017 59.5309 57.7163 59.4949 56.5267L59.4228 54.3636L58.906 54.3276L58.3893 54.2915L58.4254 56.5747ZM64.53 57.2116C64.53 55.6975 64.566 54.4237 64.6261 54.3757C64.7703 54.2074 67.5582 54.3636 67.9548 54.5559C68.147 54.652 68.4354 54.9164 68.5917 55.1447C68.832 55.4932 68.868 55.6735 68.832 56.2503C68.7479 57.4279 68.0749 57.9086 66.5127 57.9086H65.6115V58.93V59.9514H65.0707H64.53V57.2116ZM67.7745 56.1061C67.7745 55.7576 67.7024 55.5894 67.5101 55.4572C67.2338 55.2529 65.6235 55.1808 65.5995 55.349C65.5875 55.4091 65.5754 55.7816 65.5634 56.1902L65.5514 56.9472H66.3926C67.4741 56.9472 67.7745 56.767 67.7745 56.1061ZM18.3856 57.1876V59.9514H18.9264H19.4671V57.1876V54.4237H18.9264H18.3856V57.1876ZM31.9644 59.9514V57.1876V54.4237H32.5052H33.0459V56.7069V58.9901H34.3678H35.6896V59.4708V59.9514H33.827H31.9644Z" fill="white"/>
</svg>
