<svg width="24" height="32" viewBox="0 0 24 32" fill="none" xmlns="http://www.w3.org/2000/svg">
<path d="M12 6.4C11.5757 6.4 11.1687 6.56857 10.8687 6.86863C10.5686 7.16869 10.4 7.57565 10.4 8V11.2C10.4 11.6243 10.5686 12.0313 10.8687 12.3314C11.1687 12.6314 11.5757 12.8 12 12.8C12.4244 12.8 12.8314 12.6314 13.1314 12.3314C13.4315 12.0313 13.6 11.6243 13.6 11.2V8C13.6 7.57565 13.4315 7.16869 13.1314 6.86863C12.8314 6.56857 12.4244 6.4 12 6.4ZM12 0C9.02962 0 6.18086 1.18 4.08045 3.2804C1.98005 5.38081 0.800049 8.22958 0.800049 11.2V20.8C0.800049 23.7704 1.98005 26.6192 4.08045 28.7196C6.18086 30.82 9.02962 32 12 32C14.9705 32 17.8192 30.82 19.9196 28.7196C22.0201 26.6192 23.2 23.7704 23.2 20.8V11.2C23.2 8.22958 22.0201 5.38081 19.9196 3.2804C17.8192 1.18 14.9705 0 12 0ZM20 20.8C20 22.9217 19.1572 24.9566 17.6569 26.4569C16.1566 27.9571 14.1218 28.8 12 28.8C9.87832 28.8 7.84349 27.9571 6.34319 26.4569C4.8429 24.9566 4.00005 22.9217 4.00005 20.8V11.2C4.00005 9.07827 4.8429 7.04344 6.34319 5.54315C7.84349 4.04285 9.87832 3.2 12 3.2C14.1218 3.2 16.1566 4.04285 17.6569 5.54315C19.1572 7.04344 20 9.07827 20 11.2V20.8Z" fill="#EDEDF5"/>
</svg>
