<svg width="26" height="26" viewBox="0 0 26 26" fill="none" xmlns="http://www.w3.org/2000/svg">
<g clip-path="url(#clip0_88_4873)">
<path d="M26.0009 10.1611H0.000976562V4.93121C0.000976562 4.68365 0.201714 4.48291 0.449273 4.48291H25.5527C25.8002 4.48291 26.001 4.68365 26.001 4.93121L26.0009 10.1611Z" fill="#F5F5F5"/>
<path d="M25.5526 21.5175H0.449273C0.201714 21.5175 0.000976562 21.3168 0.000976562 21.0692V15.8394H26.0009V21.0692C26.0009 21.3168 25.8002 21.5175 25.5526 21.5175Z" fill="#FF4B55"/>
<path d="M26.0009 10.1611H0.000976562V15.839H26.0009V10.1611Z" fill="#41479B"/>
<path d="M6.61321 17.2296C6.48052 17.1534 3.3623 15.3397 3.3623 12.552V8.7417H10.0864V12.552C10.0864 15.3397 6.96822 17.1534 6.83553 17.2296L6.72437 17.293L6.61321 17.2296Z" fill="#FF4B55"/>
<path d="M8.48605 11.8796L7.42934 12.0188H7.07718V11.3882H7.28848L8.13378 11.5274L8.01932 11.036L8.13378 10.5446L7.28848 10.6837H7.07718V10.4707L7.21632 9.41406L6.72496 9.55721L6.2336 9.41406L6.37274 10.4707V10.6837H6.16134L5.31609 10.5446L5.43055 11.036L5.31609 11.5274L6.16134 11.3882H6.37274V12.0188H6.02052L4.96387 11.8796L5.10697 12.3709L4.96387 12.8624L6.02052 12.7232H6.37274V14.3451H7.07718V12.7232H7.42934L8.48605 12.8624L8.34295 12.3709L8.48605 11.8796Z" fill="#F5F5F5"/>
<path d="M6.72506 13.6724C6.26204 13.6724 5.86493 13.9533 5.6941 14.3538C5.66394 14.3513 5.6351 14.3448 5.60437 14.3448C5.00764 14.3448 4.52446 14.8124 4.49023 15.4005C5.39795 16.5179 6.53489 17.1838 6.6139 17.2292L6.72506 17.2927L6.83622 17.2292C6.91524 17.1838 8.05218 16.518 8.95989 15.4005C8.92566 14.8124 8.44248 14.3448 7.84575 14.3448C7.81503 14.3448 7.78618 14.3513 7.75602 14.3538C7.58519 13.9533 7.18808 13.6724 6.72506 13.6724Z" fill="#41479B"/>
<path d="M9.86281 8.96539C9.86281 8.96539 9.86281 11.6551 9.86281 12.5516C9.86281 15.2413 6.72489 17.0344 6.72489 17.0344C6.72489 17.0344 3.58697 15.2413 3.58697 12.5516C3.58697 11.6551 3.58697 8.96539 3.58697 8.96539H9.86281ZM10.3111 8.51709H9.86276H3.58697H3.13867V8.96539V12.5516C3.13867 15.4679 6.36515 17.345 6.50247 17.4235L6.72489 17.5507L6.94731 17.4235C7.08467 17.345 10.3111 15.4678 10.3111 12.5516V8.96539V8.51709H10.3111Z" fill="#F5F5F5"/>
</g>
<defs>
<clipPath id="clip0_88_4873">
<rect width="26" height="26" fill="white"/>
</clipPath>
</defs>
</svg>
